<svg width="20" height="24" viewBox="0 0 20 24" fill="none" xmlns="http://www.w3.org/2000/svg">
<g clip-path="url(#clip0)">
<path d="M0 0V12.9769L9.65917 18.4829V14.7401L3.19728 11.0566V5.27098L9.65917 8.95443V5.50608L0 0Z" fill="#002A41"/>
<path d="M19.3179 0V12.9769L9.65877 18.4829V14.7401L16.1206 11.0566V5.27098L9.65869 8.95443V5.50608L19.3179 0H19.3179Z" fill="#0071B5"/>
<path d="M0 23.9946V11.0176L9.65917 5.51147V9.25427L3.19728 12.9377V18.4291L9.65917 14.7457V18.4885L0 23.9946Z" fill="#0071B5"/>
<path d="M19.3179 23.9946V11.0176L9.65877 5.51147V9.25427L16.1206 12.9377V18.4291L9.65869 14.7457V18.4885L19.3179 23.9946Z" fill="#002A41"/>
</g>
<defs>
<clipPath id="clip0">
<rect width="19.3248" height="24" fill="white"/>
</clipPath>
</defs>
</svg>
