<svg width="31" height="24" viewBox="0 0 31 24" fill="none" xmlns="http://www.w3.org/2000/svg">
<path fill-rule="evenodd" clip-rule="evenodd" d="M6.25762 0C4.53857 0 3.26656 1.50462 3.32352 3.13634C3.37818 4.70398 3.30716 6.7343 2.79605 8.39003C2.28311 10.0504 1.41624 11.1026 0 11.2376V12.7624C1.41624 12.8977 2.28311 13.9494 2.79599 15.61C3.30716 17.2657 3.37813 19.296 3.32346 20.8637C3.2665 22.4951 4.53851 24 6.25785 24H23.8724C25.5914 24 26.8632 22.4954 26.8062 20.8637C26.7516 19.296 26.8226 17.2657 27.3337 15.61C27.8466 13.9494 28.7114 12.8973 30.1277 12.7624V11.2376C28.7115 11.1023 27.8467 10.0506 27.3337 8.39003C26.8225 6.73454 26.7516 4.70398 26.8062 3.13634C26.8632 1.50485 25.5914 0 23.8724 0H6.25738H6.25762ZM20.4256 14.7736C20.4256 17.0204 18.7497 18.383 15.9684 18.383H11.234C11.0986 18.383 10.9687 18.3292 10.873 18.2334C10.7772 18.1377 10.7234 18.0078 10.7234 17.8724V6.12769C10.7234 5.99226 10.7772 5.86238 10.873 5.76661C10.9687 5.67085 11.0986 5.61705 11.234 5.61705H15.9415C18.2606 5.61705 19.7825 6.87323 19.7825 8.80188C19.7825 10.1556 18.7587 11.3674 17.4543 11.5797V11.6504C19.2299 11.8451 20.4256 13.0749 20.4256 14.7736ZM15.4522 7.23576H12.7527V11.0488H15.0264C16.784 11.0488 17.7532 10.341 17.7532 9.07597C17.753 7.8904 16.9198 7.23576 15.4522 7.23576ZM12.7527 12.5617V16.7638H15.5515C17.3816 16.7638 18.3509 16.0295 18.3509 14.6495C18.3509 13.2695 17.3544 12.5615 15.4338 12.5615H12.7527V12.5617Z" fill="#7952B3"/>
</svg>
