<svg width="12" height="12" viewBox="0 0 12 12" fill="none" xmlns="http://www.w3.org/2000/svg">
<path d="M11.0371 7.2619C10.3024 7.2619 9.58104 7.15597 8.89745 6.94769C8.56248 6.84236 8.1507 6.93899 7.94626 7.13257L6.59698 8.07164C5.03221 7.30155 4.06833 6.41319 3.24446 4.98136L4.23305 3.76979C4.48989 3.53331 4.58202 3.18787 4.47164 2.86374C4.24477 2.23018 4.12952 1.56542 4.12952 0.887786C4.12955 0.398256 3.69758 0 3.16665 0H0.962904C0.431968 0 0 0.398256 0 0.887758C0 6.49873 4.95117 11.0635 11.0371 11.0635C11.568 11.0635 12 10.6652 12 10.1757V8.14963C12 7.66016 11.568 7.2619 11.0371 7.2619Z" fill="#536083"/>
</svg>
