<svg width="36" height="36" viewBox="0 0 36 36" fill="none" xmlns="http://www.w3.org/2000/svg">
<path d="M8.4375 12.375L18 8.4375L27.5625 12.375V24.1875L18 27.5625L8.4375 24.1875V12.375Z" fill="#E1F9EB"/>
<path d="M17.9971 16.4993C17.9056 16.4993 17.8141 16.4828 17.7271 16.4498L7.97707 12.6998C7.68757 12.5888 7.49707 12.3098 7.49707 11.9993C7.49707 11.6888 7.68757 11.4098 7.97707 11.2988L17.7271 7.54877C17.8996 7.48277 18.0931 7.48277 18.2656 7.54877L28.0156 11.2988C28.3066 11.4098 28.4971 11.6888 28.4971 11.9993C28.4971 12.3098 28.3066 12.5888 28.0171 12.6998L18.2671 16.4498C18.1801 16.4828 18.0886 16.4993 17.9971 16.4993ZM10.3366 11.9993L17.9971 14.9453L25.6576 11.9993L17.9971 9.05327L10.3366 11.9993Z" fill="#3BBE73"/>
<path d="M17.9971 28.5C17.9056 28.5 17.8141 28.4835 17.7271 28.4505L7.97707 24.7005C7.68757 24.5895 7.49707 24.3105 7.49707 24V12C7.49707 11.586 7.83307 11.25 8.24707 11.25C8.66107 11.25 8.99707 11.586 8.99707 12V23.4855L17.9971 26.9475L26.9971 23.4855V12C26.9971 11.586 27.3331 11.25 27.7471 11.25C28.1611 11.25 28.4971 11.586 28.4971 12V24C28.4971 24.3105 28.3066 24.5895 28.0171 24.7005L18.2671 28.4505C18.1801 28.4835 18.0886 28.5 17.9971 28.5Z" fill="#3BBE73"/>
<path d="M17.9985 28.5007C17.5845 28.5007 17.2485 28.1647 17.2485 27.7507V15.7507C17.2485 15.3367 17.5845 15.0007 17.9985 15.0007C18.4125 15.0007 18.7485 15.3367 18.7485 15.7507V27.7507C18.7485 28.1647 18.4125 28.5007 17.9985 28.5007Z" fill="#3BBE73"/>
<path d="M0.75 12C0.336 12 0 11.664 0 11.25V3.75C0 1.683 1.6815 0 3.75 0H11.25C11.664 0 12 0.336 12 0.75C12 1.164 11.664 1.5 11.25 1.5H3.75C2.5095 1.5 1.5 2.5095 1.5 3.75V11.25C1.5 11.664 1.164 12 0.75 12Z" fill="#3BBE73"/>
<path d="M32.2485 36.0007H24.7485C24.3345 36.0007 23.9985 35.6647 23.9985 35.2507C23.9985 34.8367 24.3345 34.5007 24.7485 34.5007H32.2485C33.489 34.5007 34.4985 33.4912 34.4985 32.2507V24.7507C34.4985 24.3367 34.8345 24.0007 35.2485 24.0007C35.6625 24.0007 35.9985 24.3367 35.9985 24.7507V32.2507C35.9985 34.3177 34.317 36.0007 32.2485 36.0007Z" fill="#3BBE73"/>
<path d="M35.2485 12C34.8345 12 34.4985 11.664 34.4985 11.25V3.75C34.4985 2.5095 33.489 1.5 32.2485 1.5H24.7485C24.3345 1.5 23.9985 1.164 23.9985 0.75C23.9985 0.336 24.3345 0 24.7485 0H32.2485C34.317 0 35.9985 1.683 35.9985 3.75V11.25C35.9985 11.664 35.6625 12 35.2485 12Z" fill="#3BBE73"/>
<path d="M11.25 36.0007H3.75C1.6815 36.0007 0 34.3177 0 32.2507V24.7507C0 24.3367 0.336 24.0007 0.75 24.0007C1.164 24.0007 1.5 24.3367 1.5 24.7507V32.2507C1.5 33.4912 2.5095 34.5007 3.75 34.5007H11.25C11.664 34.5007 12 34.8367 12 35.2507C12 35.6647 11.664 36.0007 11.25 36.0007Z" fill="#3BBE73"/>
</svg>
