<svg width="18" height="24" viewBox="0 0 18 24" fill="none" xmlns="http://www.w3.org/2000/svg">
<path d="M13.3241 0.888071H11.9138L13.3808 2.48084V3.23834H10.3585V2.35123H11.8255L10.3585 0.758461V0H13.3251L13.3241 0.888071ZM9.75841 0.888071H8.34614L9.81505 2.48084V3.23834H6.79177V2.35123H8.25877L6.79177 0.758461V0H9.75841V0.888071ZM6.22725 0.924554H4.70553V2.31475H6.22725V3.2393H3.62256V0H6.22725V0.924554Z" fill="#131313"/>
<path d="M1.54764 22.0731L0 4.71777H17.003L15.4534 22.0702L8.49092 24L1.54764 22.0731Z" fill="#1572B6"/>
<path d="M8.50146 22.5252L14.1275 20.9651L15.4505 6.13672H8.50146V22.5252Z" fill="#33A9DC"/>
<path d="M8.50146 12.4243H11.3183L11.5123 10.245H8.50146V8.11743H13.8395L13.7886 8.68868L13.2654 14.5547H8.50146V12.4243Z" fill="white"/>
<path d="M8.51312 17.9525H8.50352L6.13309 17.3122L5.9814 15.6147H3.84619L4.14478 18.9568L8.50544 20.1703H8.51793V17.9525H8.51312Z" fill="#EBEBEB"/>
<path d="M11.1379 14.4617L10.8816 17.3102L8.50732 17.9506V20.1684L12.8709 18.9587L12.9026 18.5986L13.2731 14.4607H11.1379V14.4617Z" fill="white"/>
<path d="M8.50903 8.11743V10.2459H3.36877L3.32461 9.7678L3.22764 8.68868L3.17676 8.11743H8.50903ZM8.50134 12.4243V14.5528H6.1578L6.11651 14.0747L6.01955 12.9956L5.96866 12.4243H8.50038H8.50134Z" fill="#EBEBEB"/>
</svg>
