<svg width="44" height="44" viewBox="0 0 44 44" fill="none" xmlns="http://www.w3.org/2000/svg">
<rect width="44" height="44" rx="4" fill="#FFF1F2"/>
<path d="M28 13C27.2044 13 26.4413 13.3161 25.8787 13.8787C25.3161 14.4413 25 15.2044 25 16V28C25 28.7956 25.3161 29.5587 25.8787 30.1213C26.4413 30.6839 27.2044 31 28 31C28.7956 31 29.5587 30.6839 30.1213 30.1213C30.6839 29.5587 31 28.7956 31 28C31 27.2044 30.6839 26.4413 30.1213 25.8787C29.5587 25.3161 28.7956 25 28 25H16C15.2044 25 14.4413 25.3161 13.8787 25.8787C13.3161 26.4413 13 27.2044 13 28C13 28.7956 13.3161 29.5587 13.8787 30.1213C14.4413 30.6839 15.2044 31 16 31C16.7956 31 17.5587 30.6839 18.1213 30.1213C18.6839 29.5587 19 28.7956 19 28V16C19 15.2044 18.6839 14.4413 18.1213 13.8787C17.5587 13.3161 16.7956 13 16 13C15.2044 13 14.4413 13.3161 13.8787 13.8787C13.3161 14.4413 13 15.2044 13 16C13 16.7956 13.3161 17.5587 13.8787 18.1213C14.4413 18.6839 15.2044 19 16 19H28C28.7956 19 29.5587 18.6839 30.1213 18.1213C30.6839 17.5587 31 16.7956 31 16C31 15.2044 30.6839 14.4413 30.1213 13.8787C29.5587 13.3161 28.7956 13 28 13Z" stroke="#FF5670" stroke-width="2" stroke-linecap="round" stroke-linejoin="round"/>
</svg>
