<svg width="18" height="24" viewBox="0 0 18 24" fill="none" xmlns="http://www.w3.org/2000/svg">
<path d="M17.0032 4.71655L15.4542 22.0696L8.49119 24L1.54742 22.0723L0 4.71655H17.0032Z" fill="#E44D26"/>
<path d="M8.50244 22.5244L14.1289 20.9645L15.4525 6.1355H8.50244V22.5244Z" fill="#F16529"/>
<path d="M5.49036 10.393H8.50162V8.2644H3.16406L3.21498 8.83546L3.73819 14.7014H8.50162V12.5728H5.68491L5.49036 10.393ZM5.97011 15.7657H3.8333L4.13149 19.108L8.49183 20.3183L8.50162 20.3157V18.101L8.49229 18.1035L6.12167 17.4634L5.97011 15.7657Z" fill="#EBEBEB"/>
<path d="M1.58057 0H2.6623V1.06874H3.65186V0H4.73366V3.23641H3.65193V2.15267H2.66237V3.23641H1.58063V0H1.58057ZM6.15611 1.07327H5.20395V0H8.19082V1.07327H7.23805V3.23641H6.15631V1.07327H6.15625H6.15611ZM8.66483 0H9.79276L10.4866 1.13719L11.1798 0H12.3081V3.23641H11.2308V1.63227L10.4866 2.78299H10.4679L9.72324 1.63227V3.23641H8.66483V0ZM12.8465 0H13.9285V2.16667H15.4498V3.23641H12.8464V0H12.8465Z" fill="black"/>
<path d="M8.4947 14.7014H11.1159L10.8687 17.462L8.49463 18.1028V20.3173L12.8584 19.108L12.8904 18.7483L13.3907 13.1443L13.4426 12.5728H8.4947V14.7014ZM8.4947 10.3878V10.393H13.6363L13.679 9.9146L13.776 8.83546L13.8269 8.2644H8.4947V10.3879V10.3878Z" fill="white"/>
</svg>
