<svg width="33" height="32" viewBox="0 0 33 32" fill="none" xmlns="http://www.w3.org/2000/svg">
<path d="M17.9536 12.6343L31.2537 15.2943V30.5892H17.9536V12.6343Z" fill="white"/>
<path d="M0.666504 0.664307L17.9566 2.9918V31.2542H0.666504V0.664307Z" fill="#F0F5FC"/>
<path d="M18.8075 11.9695L30.6432 14.3205C31.5971 14.522 32.2419 15.3281 32.2419 16.2819V29.9849C32.2419 31.1 31.3418 32.0001 30.2268 32.0001H18.1357C18.5119 32.0001 18.8075 31.7045 18.8075 31.3284V30.6567H30.2268C30.5895 30.6567 30.8985 30.3611 30.8985 29.9849V16.2819C30.8985 15.9729 30.6835 15.6908 30.3745 15.6236L18.8075 13.3398V11.9695Z" fill="#00005C"/>
<path d="M26.1955 18.5654C26.5717 18.5654 26.8673 18.861 26.8673 19.2371C26.8673 19.6133 26.5717 19.9089 26.1955 19.9089H23.5086C23.1325 19.9089 22.8369 19.6133 22.8369 19.2371C22.8369 18.861 23.1325 18.5654 23.5086 18.5654H26.1955Z" fill="#00005C"/>
<path d="M26.1955 22.5957C26.5717 22.5957 26.8673 22.8913 26.8673 23.2674C26.8673 23.6436 26.5717 23.9391 26.1955 23.9391H23.5086C23.1325 23.9391 22.8369 23.6436 22.8369 23.2674C22.8369 22.8913 23.1325 22.5957 23.5086 22.5957H26.1955Z" fill="#00005C"/>
<path d="M26.1955 26.626C26.5717 26.626 26.8673 26.9215 26.8673 27.2977C26.8673 27.6739 26.5717 27.9694 26.1955 27.9694H23.5086C23.1325 27.9694 22.8369 27.6739 22.8369 27.2977C22.8369 26.9215 23.1325 26.626 23.5086 26.626H26.1955Z" fill="#00005C"/>
<path d="M18.8078 31.3277C18.8078 31.7039 18.5122 31.9995 18.1361 31.9995C17.7599 31.9995 17.4644 31.7039 17.4644 31.3277V30.656V12.5197C17.4644 12.3181 17.5584 12.1301 17.7062 11.9957C17.8674 11.8748 18.0689 11.8211 18.2704 11.8614L18.8078 11.9689V13.3392V30.656V31.3277Z" fill="#00005C"/>
<path d="M17.4638 30.6565V31.3282C17.4638 31.7044 17.7593 31.9999 18.1355 31.9999H12.7617C13.1379 31.9999 13.4334 31.7044 13.4334 31.3282V30.6565H17.4638Z" fill="#00005C"/>
<path d="M14.1057 6.47412C14.4819 6.47412 14.7774 6.76968 14.7774 7.14584C14.7774 7.522 14.4819 7.81756 14.1057 7.81756H11.4188C11.0426 7.81756 10.7471 7.522 10.7471 7.14584C10.7471 6.76968 11.0426 6.47412 11.4188 6.47412H14.1057Z" fill="#00005C"/>
<path d="M14.7774 11.1764C14.7774 11.5525 14.4819 11.8481 14.1057 11.8481H11.4188C11.0426 11.8481 10.7471 11.5525 10.7471 11.1764C10.7471 10.8002 11.0426 10.5046 11.4188 10.5046H14.1057C14.4819 10.5046 14.7774 10.8002 14.7774 11.1764Z" fill="#00005C"/>
<path d="M14.1057 14.5349C14.4819 14.5349 14.7774 14.8305 14.7774 15.2066C14.7774 15.5828 14.4819 15.8783 14.1057 15.8783H11.4188C11.0426 15.8783 10.7471 15.5828 10.7471 15.2066C10.7471 14.8305 11.0426 14.5349 11.4188 14.5349H14.1057Z" fill="#00005C"/>
<path d="M14.1057 18.5654C14.4819 18.5654 14.7774 18.861 14.7774 19.2371C14.7774 19.6133 14.4819 19.9089 14.1057 19.9089H11.4188C11.0426 19.9089 10.7471 19.6133 10.7471 19.2371C10.7471 18.861 11.0426 18.5654 11.4188 18.5654H14.1057Z" fill="#00005C"/>
<path d="M8.05964 19.2371C8.05964 19.6133 7.76408 19.9089 7.38792 19.9089H4.70102C4.32486 19.9089 4.0293 19.6133 4.0293 19.2371C4.0293 18.861 4.32486 18.5654 4.70102 18.5654H7.38792C7.76408 18.5654 8.05964 18.861 8.05964 19.2371Z" fill="#00005C"/>
<path d="M7.38792 6.47412C7.76408 6.47412 8.05964 6.76968 8.05964 7.14584C8.05964 7.522 7.76408 7.81756 7.38792 7.81756H4.70102C4.32486 7.81756 4.0293 7.522 4.0293 7.14584C4.0293 6.76968 4.32486 6.47412 4.70102 6.47412H7.38792Z" fill="#00005C"/>
<path d="M7.38792 10.5046C7.76408 10.5046 8.05964 10.8002 8.05964 11.1764C8.05964 11.5525 7.76408 11.8481 7.38792 11.8481H4.70102C4.32486 11.8481 4.0293 11.5525 4.0293 11.1764C4.0293 10.8002 4.32486 10.5046 4.70102 10.5046H7.38792Z" fill="#00005C"/>
<path d="M7.38792 14.5349C7.76408 14.5349 8.05964 14.8305 8.05964 15.2066C8.05964 15.5828 7.76408 15.8783 7.38792 15.8783H4.70102C4.32486 15.8783 4.0293 15.5828 4.0293 15.2066C4.0293 14.8305 4.32486 14.5349 4.70102 14.5349H7.38792Z" fill="#00005C"/>
<path d="M12.0917 24.6109C12.0917 24.2347 11.7828 23.9391 11.42 23.9391H7.38968C7.01352 23.9391 6.71796 24.2347 6.71796 24.6109V30.6563H5.37451V24.6109C5.37451 23.4958 6.27462 22.5957 7.38968 22.5957H11.42C12.5351 22.5957 13.4352 23.4958 13.4352 24.6109V30.6563H12.0917V24.6109Z" fill="#00005C"/>
<path d="M6.71796 30.6565H12.0917H13.4352V31.3282C13.4352 31.7044 13.1396 31.9999 12.7635 31.9999H6.04624C5.67007 31.9999 5.37451 31.7044 5.37451 31.3282V30.6565H6.71796Z" fill="#00005C"/>
<path d="M2.35103 0.0261553L17.1155 2.26969C18.0962 2.4309 18.8083 3.26383 18.8083 4.25797V11.9693L18.2709 11.8618C18.0694 11.8215 17.8679 11.8752 17.7066 11.9962C17.5589 12.1305 17.4648 12.3186 17.4648 12.5201V4.25797C17.4648 3.92212 17.223 3.63999 16.9006 3.58626L2.13608 1.35616C2.09578 1.34272 2.05547 1.34272 2.01517 1.34272C1.85396 1.34272 1.70618 1.39646 1.58527 1.50393C1.42405 1.63828 1.34345 1.81292 1.34345 2.01444V29.9847C1.34345 30.3609 1.65244 30.6565 2.01517 30.6565H5.37379V31.3282C5.37379 31.7043 5.66935 31.9999 6.04551 31.9999H2.01517C0.90011 31.9999 0 31.0998 0 29.9847V2.01444C0 1.42333 0.255255 0.859085 0.712027 0.482923C1.1688 0.0933271 1.75992 -0.0678851 2.35103 0.0261553Z" fill="#00005C"/>
</svg>
