<svg width="32" height="32" viewBox="0 0 32 32" fill="none" xmlns="http://www.w3.org/2000/svg">
<rect x="15.9136" y="0.936768" width="12.6439" height="30.4391" fill="#FFF1F2"/>
<rect x="3.27686" y="9.05505" width="12.6439" height="22.322" fill="white"/>
<path d="M6 15.1442H6.9375C7.28269 15.1442 7.5625 14.8644 7.5625 14.5192V13.5818C7.5625 13.2366 7.28269 12.9568 6.9375 12.9568H6C5.65475 12.9568 5.375 13.2366 5.375 13.5818V14.5192C5.375 14.8644 5.65475 15.1442 6 15.1442Z" fill="#00005C"/>
<path d="M6 22.011H6.9375C7.28269 22.011 7.5625 21.7312 7.5625 21.386V20.4486C7.5625 20.1035 7.28269 19.8236 6.9375 19.8236H6C5.65475 19.8236 5.375 20.1035 5.375 20.4486V21.386C5.375 21.7312 5.65475 22.011 6 22.011Z" fill="#00005C"/>
<path d="M9.27979 15.1442H10.2173C10.5625 15.1442 10.8423 14.8644 10.8423 14.5192V13.5818C10.8423 13.2366 10.5625 12.9568 10.2173 12.9568H9.27979C8.9346 12.9568 8.65479 13.2366 8.65479 13.5818V14.5192C8.65479 14.8644 8.9346 15.1442 9.27979 15.1442Z" fill="#00005C"/>
<path d="M9.27979 22.011H10.2173C10.5625 22.011 10.8423 21.7312 10.8423 21.386V20.4486C10.8423 20.1035 10.5625 19.8236 10.2173 19.8236H9.27979C8.9346 19.8236 8.65479 20.1035 8.65479 20.4486V21.386C8.65479 21.7312 8.9346 22.011 9.27979 22.011Z" fill="#00005C"/>
<path d="M12.5566 15.1442H13.4942C13.8394 15.1442 14.1192 14.8644 14.1192 14.5192V13.5818C14.1192 13.2366 13.8394 12.9568 13.4942 12.9568H12.5566C12.2115 12.9568 11.9316 13.2366 11.9316 13.5818V14.5192C11.9316 14.8644 12.2115 15.1442 12.5566 15.1442Z" fill="#00005C"/>
<path d="M12.5566 22.011H13.4942C13.8394 22.011 14.1192 21.7312 14.1192 21.386V20.4486C14.1192 20.1035 13.8394 19.8236 13.4942 19.8236H12.5566C12.2115 19.8236 11.9316 20.1035 11.9316 20.4486V21.386C11.9316 21.7312 12.2115 22.011 12.5566 22.011Z" fill="#00005C"/>
<path d="M18.5 15.1442H19.4375C19.7827 15.1442 20.0625 14.8644 20.0625 14.5192V13.5818C20.0625 13.2366 19.7827 12.9568 19.4375 12.9568H18.5C18.1547 12.9568 17.875 13.2366 17.875 13.5818V14.5192C17.875 14.8644 18.1547 15.1442 18.5 15.1442Z" fill="#00005C"/>
<path d="M18.5 8.27692H19.4375C19.7827 8.27692 20.0625 7.99705 20.0625 7.65192V6.71423C20.0625 6.36911 19.7827 6.08923 19.4375 6.08923H18.5C18.1547 6.08923 17.875 6.36911 17.875 6.71423V7.65192C17.875 7.99705 18.1547 8.27692 18.5 8.27692Z" fill="#00005C"/>
<path d="M18.5 22.011H19.4375C19.7827 22.011 20.0625 21.7312 20.0625 21.386V20.4486C20.0625 20.1035 19.7827 19.8236 19.4375 19.8236H18.5C18.1547 19.8236 17.875 20.1035 17.875 20.4486V21.386C17.875 21.7312 18.1547 22.011 18.5 22.011Z" fill="#00005C"/>
<path d="M21.7798 15.1442H22.7173C23.0625 15.1442 23.3423 14.8644 23.3423 14.5192V13.5818C23.3423 13.2366 23.0625 12.9568 22.7173 12.9568H21.7798C21.4347 12.9568 21.1548 13.2366 21.1548 13.5818V14.5192C21.1548 14.8644 21.4347 15.1442 21.7798 15.1442Z" fill="#00005C"/>
<path d="M21.7798 8.27692H22.7173C23.0625 8.27692 23.3423 7.99705 23.3423 7.65192V6.71423C23.3423 6.36911 23.0625 6.08923 22.7173 6.08923H21.7798C21.4347 6.08923 21.1548 6.36911 21.1548 6.71423V7.65192C21.1548 7.99705 21.4347 8.27692 21.7798 8.27692Z" fill="#00005C"/>
<path d="M21.7798 22.011H22.7173C23.0625 22.011 23.3423 21.7312 23.3423 21.386V20.4486C23.3423 20.1035 23.0625 19.8236 22.7173 19.8236H21.7798C21.4347 19.8236 21.1548 20.1035 21.1548 20.4486V21.386C21.1548 21.7312 21.4347 22.011 21.7798 22.011Z" fill="#00005C"/>
<path d="M25.0566 15.1442H25.9941C26.3392 15.1442 26.6191 14.8644 26.6191 14.5192V13.5818C26.6191 13.2366 26.3392 12.9568 25.9941 12.9568H25.0566C24.7115 12.9568 24.4316 13.2366 24.4316 13.5818V14.5192C24.4316 14.8644 24.7115 15.1442 25.0566 15.1442Z" fill="#00005C"/>
<path d="M25.0566 8.27692H25.9941C26.3392 8.27692 26.6191 7.99705 26.6191 7.65192V6.71423C26.6191 6.36911 26.3392 6.08923 25.9941 6.08923H25.0566C24.7115 6.08923 24.4316 6.36911 24.4316 6.71423V7.65192C24.4316 7.99705 24.7115 8.27692 25.0566 8.27692Z" fill="#00005C"/>
<path d="M25.0566 22.011H25.9941C26.3392 22.011 26.6191 21.7312 26.6191 21.386V20.4486C26.6191 20.1035 26.3392 19.8236 25.9941 19.8236H25.0566C24.7115 19.8236 24.4316 20.1035 24.4316 20.4486V21.386C24.4316 21.7312 24.7115 22.011 25.0566 22.011Z" fill="#00005C"/>
<path d="M7.23535 28.25C6.89016 28.25 6.61035 28.5299 6.61035 28.875C6.61035 29.2202 6.89016 29.5 7.23535 29.5H7.2501C7.59523 29.5 7.8751 29.2202 7.8751 28.875C7.8751 28.5298 7.59523 28.25 7.2501 28.25H7.23535Z" fill="#00005C"/>
<path d="M19.7354 28.25C19.3902 28.25 19.1104 28.5299 19.1104 28.875C19.1104 29.2202 19.3902 29.5 19.7354 29.5H19.75C20.0952 29.5 20.375 29.2202 20.375 28.875C20.375 28.5299 20.0952 28.25 19.75 28.25H19.7354Z" fill="#00005C"/>
<path d="M0.63975 30.75H0.625C0.27975 30.75 0 31.0299 0 31.375C0 31.7201 0.27975 32 0.625 32H0.63975C0.984875 32 1.26475 31.7201 1.26475 31.375C1.26475 31.0298 0.984938 30.75 0.63975 30.75Z" fill="#00005C"/>
<path d="M31.3752 30.75H31.3604C31.0152 30.75 30.7354 31.0299 30.7354 31.375C30.7354 31.7201 31.0152 32 31.3604 32H31.3752C31.7204 32 32.0002 31.7201 32.0002 31.375C32.0002 31.0298 31.7204 30.75 31.3752 30.75Z" fill="#00005C"/>
<path d="M29.5725 30.75H29.1327V0.625C29.1327 0.279813 28.8529 0 28.5077 0H16.0079C15.6627 0 15.3829 0.279813 15.3829 0.625V8.25019H3.50792C3.16267 8.25019 2.88292 8.53006 2.88292 8.87519V30.75H2.44336C2.09817 30.75 1.81836 31.0299 1.81836 31.375C1.81836 31.7201 2.09817 32 2.44336 32H3.50792H9.75792H13.508H16.0079H22.2579H26.0079H28.5077H28.5078H28.5079H29.5725C29.9177 32 30.1975 31.7201 30.1975 31.375C30.1975 31.0298 29.9177 30.75 29.5725 30.75ZM12.883 30.75H10.3829V28.2502H12.883V30.75ZM15.3829 30.75H14.133V27.6252C14.133 27.2801 13.8532 27.0002 13.508 27.0002H9.75792C9.41267 27.0002 9.13292 27.2801 9.13292 27.6252V30.75H4.13292V29.5001H5.44755C5.79267 29.5001 6.07255 29.2203 6.07255 28.8751C6.07255 28.53 5.79267 28.2501 5.44755 28.2501H4.13292V9.50019H15.3829V30.75ZM25.3829 30.75H22.8829V28.2502H25.3829V30.75ZM27.8827 30.75H26.6329V27.6252C26.6329 27.2801 26.353 27.0002 26.0079 27.0002H22.2579C21.9127 27.0002 21.6329 27.2801 21.6329 27.6252V30.75H16.6329V29.5001H17.9475C18.2927 29.5001 18.5725 29.2203 18.5725 28.8751C18.5725 28.53 18.2927 28.2501 17.9475 28.2501H16.6329V8.87519V1.25H27.8827V30.75Z" fill="#00005C"/>
</svg>
