<svg width="30" height="32" viewBox="0 0 30 32" fill="none" xmlns="http://www.w3.org/2000/svg">
<rect x="12.5713" y="17.1428" width="9.14286" height="14.2857" fill="white"/>
<rect x="7.42871" y="5.71423" width="9.14286" height="10.8571" fill="white"/>
<rect x="9.14307" y="2.85718" width="5.71429" height="2.28571" fill="white"/>
<rect x="2.28564" y="10.8572" width="9.71429" height="20.5714" fill="#E1F9EB"/>
<rect x="17.1431" y="2.85718" width="9.71429" height="13.7143" fill="#E1F9EB"/>
<rect x="22.2856" y="16.5714" width="4.57143" height="14.8571" fill="#E1F9EB"/>
<path d="M28.5843 30.9214H27.6854V2.69662C27.6854 2.39869 27.4439 2.15731 27.1461 2.15731H17.0787C16.7808 2.15731 16.5394 2.39869 16.5394 2.69662V5.03369H15.4607V2.69662C15.4607 2.39869 15.2192 2.15731 14.9214 2.15731H12.5843V0.539312C12.5843 0.241375 12.3428 0 12.045 0C11.7472 0 11.5057 0.241375 11.5057 0.539312V2.15731H9.16862C8.87075 2.15731 8.62931 2.39869 8.62931 2.69662V5.03369H7.01131C6.71344 5.03369 6.472 5.27506 6.472 5.573V10.0674H1.97762C1.67975 10.0674 1.43831 10.3088 1.43831 10.6067V30.9213H0.539312C0.241437 30.9213 0 31.1627 0 31.4606C0 31.7586 0.2415 32 0.539312 32H28.5843C28.8822 32 29.1236 31.7586 29.1236 31.4607C29.1236 31.1628 28.8821 30.9214 28.5843 30.9214ZM9.70787 3.23594H14.382V5.03369H9.70787V3.23594ZM7.91012 30.9214H7.55056V30.0225C7.55056 29.7246 7.30906 29.4832 7.01125 29.4832C6.71344 29.4832 6.47194 29.7246 6.47194 30.0225V30.9214H6.11237V29.1236H7.91012V30.9214ZM11.5056 17.0786V18.0064V30.9214H8.98875V28.5843C8.98875 28.2864 8.74725 28.045 8.44944 28.045H5.57306C5.27519 28.045 5.03375 28.2864 5.03375 28.5843V30.9214H2.51687V11.1461H11.5056V17.0786ZM12.0449 10.0674H7.55056V6.11237H16.5393V16.5393H12.5843V14.7416H14.2023C14.5002 14.7416 14.7416 14.5002 14.7416 14.2022C14.7416 13.9043 14.5001 13.6629 14.2023 13.6629H12.5843V11.8652H14.2023C14.5002 11.8652 14.7416 11.6238 14.7416 11.3259C14.7416 11.0279 14.5001 10.7866 14.2023 10.7866H12.5843V10.6068C12.5843 10.3088 12.3428 10.0674 12.0449 10.0674ZM21.5731 30.9214H12.5843V18.0064V17.618H21.5731V30.9214ZM26.6067 30.9214H22.6517V17.0786V16.3595C22.6517 16.0616 22.4102 15.8202 22.1124 15.8202C21.8146 15.8202 21.5731 16.0616 21.5731 16.3595V16.5392H20.4944V16.3595C20.4944 16.0616 20.2529 15.8202 19.9551 15.8202C19.6573 15.8202 19.4158 16.0616 19.4158 16.3595V16.5392H17.6181V5.57306V3.23594H26.6068V30.9214H26.6067Z" fill="black"/>
<path d="M14.9211 29.8435C15.219 29.8435 15.4605 29.602 15.4605 29.3042V19.2368C15.4605 18.9389 15.219 18.6975 14.9211 18.6975C14.6233 18.6975 14.3818 18.9389 14.3818 19.2368V29.3043C14.3818 29.6021 14.6233 29.8435 14.9211 29.8435Z" fill="black"/>
<path d="M17.0774 29.8435C17.3753 29.8435 17.6167 29.602 17.6167 29.3042V19.2368C17.6167 18.9389 17.3752 18.6975 17.0774 18.6975C16.7796 18.6975 16.5381 18.9389 16.5381 19.2368V29.3043C16.538 29.6021 16.7795 29.8435 17.0774 29.8435Z" fill="black"/>
<path d="M19.2356 29.8435C19.5335 29.8435 19.7749 29.602 19.7749 29.3042V19.2368C19.7749 18.9389 19.5334 18.6975 19.2356 18.6975C18.9378 18.6975 18.6963 18.9389 18.6963 19.2368V29.3043C18.6963 29.6021 18.9378 29.8435 19.2356 29.8435Z" fill="black"/>
<path d="M19.9544 6.83162C20.2522 6.83162 20.4937 6.59025 20.4937 6.29231V5.57325C20.4937 5.27531 20.2522 5.03394 19.9544 5.03394C19.6565 5.03394 19.415 5.27531 19.415 5.57325V6.29237C19.415 6.59025 19.6565 6.83162 19.9544 6.83162Z" fill="black"/>
<path d="M22.113 6.83162C22.4109 6.83162 22.6524 6.59025 22.6524 6.29231V5.57325C22.6524 5.27531 22.4109 5.03394 22.113 5.03394C21.8152 5.03394 21.5737 5.27531 21.5737 5.57325V6.29237C21.5737 6.59025 21.8152 6.83162 22.113 6.83162Z" fill="black"/>
<path d="M24.2693 6.83162C24.5672 6.83162 24.8086 6.59025 24.8086 6.29231V5.57325C24.8086 5.27531 24.5671 5.03394 24.2693 5.03394C23.9715 5.03394 23.73 5.27531 23.73 5.57325V6.29237C23.73 6.59025 23.9714 6.83162 24.2693 6.83162Z" fill="black"/>
<path d="M19.9544 10.4271C20.2522 10.4271 20.4937 10.1858 20.4937 9.88783V9.16871C20.4937 8.87077 20.2522 8.62939 19.9544 8.62939C19.6565 8.62939 19.415 8.87077 19.415 9.16871V9.88783C19.415 10.1858 19.6565 10.4271 19.9544 10.4271Z" fill="black"/>
<path d="M22.113 10.4271C22.4109 10.4271 22.6524 10.1858 22.6524 9.88783V9.16871C22.6524 8.87077 22.4109 8.62939 22.113 8.62939C21.8152 8.62939 21.5737 8.87077 21.5737 9.16871V9.88783C21.5737 10.1858 21.8152 10.4271 22.113 10.4271Z" fill="black"/>
<path d="M24.2693 10.4271C24.5672 10.4271 24.8086 10.1858 24.8086 9.88783V9.16871C24.8086 8.87077 24.5671 8.62939 24.2693 8.62939C23.9715 8.62939 23.73 8.87077 23.73 9.16871V9.88783C23.73 10.1858 23.9714 10.4271 24.2693 10.4271Z" fill="black"/>
<path d="M19.9544 14.0226C20.2522 14.0226 20.4937 13.7812 20.4937 13.4833V12.7642C20.4937 12.4662 20.2522 12.2249 19.9544 12.2249C19.6565 12.2249 19.415 12.4662 19.415 12.7642V13.4833C19.415 13.7812 19.6565 14.0226 19.9544 14.0226Z" fill="black"/>
<path d="M22.113 14.0226C22.4109 14.0226 22.6524 13.7812 22.6524 13.4833V12.7642C22.6524 12.4662 22.4109 12.2249 22.113 12.2249C21.8152 12.2249 21.5737 12.4662 21.5737 12.7642V13.4833C21.5737 13.7812 21.8152 14.0226 22.113 14.0226Z" fill="black"/>
<path d="M24.2693 14.0226C24.5672 14.0226 24.8086 13.7812 24.8086 13.4833V12.7642C24.8086 12.4662 24.5671 12.2249 24.2693 12.2249C23.9715 12.2249 23.73 12.4662 23.73 12.7642V13.4833C23.73 13.7812 23.9714 14.0226 24.2693 14.0226Z" fill="black"/>
<path d="M4.85425 15.4613C5.15213 15.4613 5.39357 15.2199 5.39357 14.922V14.2029C5.39357 13.9049 5.15207 13.6636 4.85425 13.6636C4.55644 13.6636 4.31494 13.9049 4.31494 14.2029V14.922C4.31494 15.2199 4.55644 15.4613 4.85425 15.4613Z" fill="black"/>
<path d="M7.0105 15.4613C7.30838 15.4613 7.54982 15.2199 7.54982 14.922V14.2029C7.54982 13.9049 7.30832 13.6636 7.0105 13.6636C6.71269 13.6636 6.47119 13.9049 6.47119 14.2029V14.922C6.47119 15.2199 6.71263 15.4613 7.0105 15.4613Z" fill="black"/>
<path d="M9.16871 15.4613C9.46658 15.4613 9.70802 15.2199 9.70802 14.922V14.2029C9.70802 13.9049 9.46652 13.6636 9.16871 13.6636C8.87089 13.6636 8.62939 13.9049 8.62939 14.2029V14.922C8.62939 15.2199 8.87083 15.4613 9.16871 15.4613Z" fill="black"/>
<path d="M4.85425 19.0568C5.15213 19.0568 5.39357 18.8154 5.39357 18.5175V17.7983C5.39357 17.5004 5.15207 17.259 4.85425 17.259C4.55644 17.259 4.31494 17.5004 4.31494 17.7983V18.5175C4.31494 18.8153 4.55644 19.0568 4.85425 19.0568Z" fill="black"/>
<path d="M7.0105 19.0568C7.30838 19.0568 7.54982 18.8154 7.54982 18.5175V17.7983C7.54982 17.5004 7.30832 17.259 7.0105 17.259C6.71269 17.259 6.47119 17.5004 6.47119 17.7983V18.5175C6.47119 18.8153 6.71263 19.0568 7.0105 19.0568Z" fill="black"/>
<path d="M9.16871 19.0568C9.46658 19.0568 9.70802 18.8154 9.70802 18.5175V17.7983C9.70802 17.5004 9.46652 17.259 9.16871 17.259C8.87089 17.259 8.62939 17.5004 8.62939 17.7983V18.5175C8.62939 18.8153 8.87083 19.0568 9.16871 19.0568Z" fill="black"/>
<path d="M4.85425 22.6527C5.15213 22.6527 5.39357 22.4114 5.39357 22.1134V21.3943C5.39357 21.0964 5.15207 20.855 4.85425 20.855C4.55644 20.855 4.31494 21.0964 4.31494 21.3943V22.1134C4.31494 22.4114 4.55644 22.6527 4.85425 22.6527Z" fill="black"/>
<path d="M7.0105 22.6527C7.30838 22.6527 7.54982 22.4114 7.54982 22.1134V21.3943C7.54982 21.0964 7.30832 20.855 7.0105 20.855C6.71269 20.855 6.47119 21.0964 6.47119 21.3943V22.1134C6.47119 22.4114 6.71263 22.6527 7.0105 22.6527Z" fill="black"/>
<path d="M9.16871 22.6527C9.46658 22.6527 9.70802 22.4114 9.70802 22.1134V21.3943C9.70802 21.0964 9.46652 20.855 9.16871 20.855C8.87089 20.855 8.62939 21.0964 8.62939 21.3943V22.1134C8.62939 22.4114 8.87083 22.6527 9.16871 22.6527Z" fill="black"/>
<path d="M4.85425 26.2475C5.15213 26.2475 5.39357 26.0061 5.39357 25.7081V24.989C5.39357 24.6911 5.15207 24.4497 4.85425 24.4497C4.55644 24.4497 4.31494 24.6911 4.31494 24.989V25.7081C4.31494 26.0061 4.55644 26.2475 4.85425 26.2475Z" fill="black"/>
<path d="M7.0105 26.2475C7.30838 26.2475 7.54982 26.0061 7.54982 25.7081V24.989C7.54982 24.6911 7.30832 24.4497 7.0105 24.4497C6.71269 24.4497 6.47119 24.6911 6.47119 24.989V25.7081C6.47119 26.0061 6.71263 26.2475 7.0105 26.2475Z" fill="black"/>
<path d="M9.16871 26.2475C9.46658 26.2475 9.70802 26.0061 9.70802 25.7081V24.989C9.70802 24.6911 9.46652 24.4497 9.16871 24.4497C8.87089 24.4497 8.62939 24.6911 8.62939 24.989V25.7081C8.62939 26.0061 8.87083 26.2475 9.16871 26.2475Z" fill="black"/>
<path d="M24.2693 17.6186C24.5672 17.6186 24.8086 17.3772 24.8086 17.0792V16.3601C24.8086 16.0622 24.5671 15.8208 24.2693 15.8208C23.9715 15.8208 23.73 16.0622 23.73 16.3601V17.0792C23.73 17.3771 23.9714 17.6186 24.2693 17.6186Z" fill="black"/>
<path d="M24.2693 21.214C24.5672 21.214 24.8086 20.9726 24.8086 20.6747V19.9556C24.8086 19.6576 24.5671 19.4163 24.2693 19.4163C23.9715 19.4163 23.73 19.6576 23.73 19.9556V20.6747C23.73 20.9726 23.9714 21.214 24.2693 21.214Z" fill="black"/>
<path d="M24.2693 24.81C24.5672 24.81 24.8086 24.5686 24.8086 24.2706V23.5515C24.8086 23.2536 24.5671 23.0122 24.2693 23.0122C23.9715 23.0122 23.73 23.2536 23.73 23.5515V24.2706C23.73 24.5685 23.9714 24.81 24.2693 24.81Z" fill="black"/>
<path d="M24.2693 28.4049C24.5672 28.4049 24.8086 28.1636 24.8086 27.8656V27.1465C24.8086 26.8486 24.5671 26.6072 24.2693 26.6072C23.9715 26.6072 23.73 26.8486 23.73 27.1465V27.8656C23.73 28.1635 23.9714 28.4049 24.2693 28.4049Z" fill="black"/>
<path d="M14.7394 8.44947C14.7394 8.15153 14.4979 7.91016 14.2001 7.91016H9.8855C9.58763 7.91016 9.34619 8.15153 9.34619 8.44947C9.34619 8.74741 9.58769 8.98878 9.8855 8.98878H14.2001C14.498 8.98878 14.7394 8.74741 14.7394 8.44947Z" fill="black"/>
</svg>
