<svg width="12" height="12" viewBox="0 0 12 12" fill="none" xmlns="http://www.w3.org/2000/svg">
<path d="M4.00032 6C4.00032 4.89547 4.89547 3.99984 6 3.99984C7.10453 3.99984 8.00016 4.89547 8.00016 6C8.00016 7.10453 7.10453 8.00016 6 8.00016C4.89547 8.00016 4.00032 7.10453 4.00032 6ZM2.91907 6C2.91907 7.7016 4.2984 9.08093 6 9.08093C7.7016 9.08093 9.08093 7.7016 9.08093 6C9.08093 4.2984 7.7016 2.91907 6 2.91907C4.2984 2.91907 2.91907 4.2984 2.91907 6ZM8.4829 2.79691C8.48284 2.93931 8.52501 3.07854 8.60408 3.19697C8.68314 3.31541 8.79556 3.40774 8.9271 3.46228C9.05864 3.51683 9.2034 3.53115 9.34308 3.50342C9.48276 3.4757 9.61107 3.40717 9.71181 3.30652C9.81254 3.20587 9.88117 3.0776 9.909 2.93795C9.93684 2.79829 9.92264 2.65352 9.8682 2.52193C9.81376 2.39035 9.72152 2.27786 9.60315 2.1987C9.48477 2.11954 9.34559 2.07726 9.20318 2.0772H9.2029C9.01202 2.07729 8.82898 2.15314 8.69398 2.28808C8.55898 2.42302 8.48306 2.60603 8.4829 2.79691ZM3.576 10.8839C2.99102 10.8572 2.67307 10.7598 2.46178 10.6775C2.18165 10.5684 1.98178 10.4385 1.77163 10.2287C1.56149 10.0188 1.43141 9.81912 1.32283 9.53899C1.24046 9.32779 1.14302 9.00974 1.11643 8.42477C1.08734 7.79232 1.08154 7.60234 1.08154 6.00005C1.08154 4.39776 1.08782 4.2083 1.11643 3.57533C1.14307 2.99035 1.24123 2.67293 1.32283 2.4611C1.43189 2.18098 1.56178 1.9811 1.77163 1.77096C1.98149 1.56082 2.18117 1.43074 2.46178 1.32216C2.67298 1.23979 2.99102 1.14235 3.576 1.11576C4.20845 1.08667 4.39843 1.08086 6 1.08086C7.60157 1.08086 7.79174 1.08715 8.42472 1.11576C9.0097 1.1424 9.32712 1.24056 9.53894 1.32216C9.81907 1.43074 10.0189 1.5611 10.2291 1.77096C10.4392 1.98082 10.5688 2.18098 10.6779 2.4611C10.7603 2.6723 10.8577 2.99035 10.8843 3.57533C10.9134 4.2083 10.9192 4.39776 10.9192 6.00005C10.9192 7.60234 10.9134 7.79179 10.8843 8.42477C10.8576 9.00974 10.7597 9.3277 10.6779 9.53899C10.5688 9.81912 10.4389 10.019 10.2291 10.2287C10.0192 10.4383 9.81907 10.5684 9.53894 10.6775C9.32774 10.7598 9.0097 10.8573 8.42472 10.8839C7.79227 10.9129 7.60229 10.9188 6 10.9188C4.39771 10.9188 4.20826 10.9129 3.576 10.8839ZM3.52632 0.036336C2.88758 0.065424 2.45112 0.166704 2.06995 0.315024C1.6752 0.468192 1.34102 0.67368 1.00709 1.00709C0.673152 1.3405 0.468192 1.6752 0.315024 2.06995C0.166704 2.45136 0.065424 2.88758 0.036336 3.52632C0.006768 4.16606 0 4.37059 0 6C0 7.62941 0.006768 7.83394 0.036336 8.47368C0.065424 9.11246 0.166704 9.54864 0.315024 9.93005C0.468192 10.3246 0.6732 10.6596 1.00709 10.9929C1.34098 11.3262 1.6752 11.5314 2.06995 11.685C2.45184 11.8333 2.88758 11.9346 3.52632 11.9637C4.1664 11.9928 4.37059 12 6 12C7.62941 12 7.83394 11.9932 8.47368 11.9637C9.11246 11.9346 9.54864 11.8333 9.93005 11.685C10.3246 11.5314 10.659 11.3263 10.9929 10.9929C11.3268 10.6595 11.5314 10.3246 11.685 9.93005C11.8333 9.54864 11.9351 9.11242 11.9637 8.47368C11.9928 7.83346 11.9995 7.62941 11.9995 6C11.9995 4.37059 11.9928 4.16606 11.9637 3.52632C11.9346 2.88754 11.8333 2.45112 11.685 2.06995C11.5314 1.67544 11.3263 1.34102 10.9929 1.00709C10.6595 0.673152 10.3246 0.468192 9.93053 0.315024C9.54864 0.166704 9.11242 0.064944 8.47416 0.036336C7.83442 0.007248 7.62989 0 6.00048 0C4.37107 0 4.1664 0.006768 3.52632 0.036336Z" fill="#536083"/>
</svg>
