<svg width="18" height="24" viewBox="0 0 18 24" fill="none" xmlns="http://www.w3.org/2000/svg">
<path d="M5.70127 18.5605C5.70127 18.5605 4.78416 19.0938 6.35398 19.2743C8.25581 19.4912 9.22775 19.4602 11.3236 19.0635C11.3236 19.0635 11.8746 19.409 12.6441 19.7082C7.94589 21.7218 2.011 19.5916 5.70127 18.5605ZM5.12715 15.9329C5.12715 15.9329 4.09851 16.6943 5.66951 16.8568C7.70108 17.0664 9.30544 17.0835 12.0816 16.5489C12.0816 16.5489 12.4656 16.9382 13.0694 17.1511C7.38894 18.8122 1.06193 17.2821 5.12715 15.9329Z" fill="#5382A1"/>
<path d="M9.96612 11.4758C11.1238 12.8086 9.66197 14.008 9.66197 14.008C9.66197 14.008 12.6014 12.4905 11.2514 10.5903C9.99065 8.81834 9.02371 7.93778 14.2581 4.9021C14.2581 4.9021 6.04188 6.9541 9.96612 11.4757" fill="#E76F00"/>
<path d="M16.1802 20.504C16.1802 20.504 16.8589 21.0632 15.4328 21.4959C12.7209 22.3174 4.14557 22.5655 1.76336 21.5286C0.90705 21.1561 2.51293 20.6391 3.01805 20.5306C3.54484 20.4164 3.84593 20.4377 3.84593 20.4377C2.89359 19.7668 -2.30958 21.755 1.203 22.3243C10.7822 23.8778 18.6649 21.6248 16.1802 20.504ZM6.14163 13.2104C6.14163 13.2104 1.77976 14.2465 4.59704 14.6226C5.78654 14.7819 8.15784 14.7459 10.3667 14.5608C12.1719 14.4086 13.9845 14.0848 13.9845 14.0848C13.9845 14.0848 13.348 14.3574 12.8875 14.6718C8.45797 15.8368 -0.0990073 15.2948 2.36444 14.1032C4.44778 13.0961 6.1417 13.2104 6.1417 13.2104H6.14163ZM13.9665 17.5841C18.4693 15.2443 16.3874 12.9958 14.9342 13.2988C14.578 13.3728 14.4193 13.4371 14.4193 13.4371C14.4193 13.4371 14.5515 13.23 14.804 13.1403C17.6788 12.1296 19.8897 16.1212 13.876 17.7021C13.876 17.7021 13.9457 17.6399 13.9665 17.5841Z" fill="#5382A1"/>
<path d="M11.2514 6.94878e-05C11.2514 6.94878e-05 13.7452 2.49471 8.88626 6.33056C4.98996 9.40765 7.99778 11.1621 8.88466 13.1666C6.6103 11.1146 4.94118 9.30822 6.06099 7.62701C7.70446 5.15898 12.2576 3.96245 11.2514 0" fill="#E76F00"/>
<path d="M6.58252 23.9245C10.9046 24.2012 17.5417 23.771 17.6989 21.7258C17.6989 21.7258 17.3968 22.5012 14.1269 23.1169C10.4379 23.811 5.88805 23.73 3.18945 23.2851C3.18952 23.2851 3.74189 23.7423 6.58258 23.9245" fill="#5382A1"/>
</svg>
