<svg width="12" height="11" viewBox="0 0 12 11" fill="none" xmlns="http://www.w3.org/2000/svg">
<path d="M2.74963 10.1153C2.74963 10.3105 2.57797 10.4687 2.3662 10.4687H0.734019C0.522246 10.4687 0.350586 10.3105 0.350586 10.1153V3.80759C0.350586 3.61235 0.522246 3.4541 0.734019 3.4541H2.3662C2.57797 3.4541 2.74963 3.61235 2.74963 3.80759V10.1153Z" fill="#536083"/>
<path d="M1.55057 2.8584C0.694221 2.8584 0 2.21852 0 1.4292C0 0.639882 0.694221 0 1.55057 0C2.40691 0 3.10114 0.639882 3.10114 1.4292C3.10114 2.21852 2.40695 2.8584 1.55057 2.8584Z" fill="#536083"/>
<path d="M11.2795 10.1447C11.2795 10.3242 11.1216 10.4697 10.9269 10.4697H9.17552C8.98084 10.4697 8.82298 10.3242 8.82298 10.1447V7.18578C8.82298 6.74437 8.96341 5.25153 7.57186 5.25153C6.49246 5.25153 6.27353 6.27334 6.22956 6.73189V10.1447C6.22956 10.3242 6.07175 10.4697 5.87702 10.4697H4.18311C3.98842 10.4697 3.83057 10.3242 3.83057 10.1447V3.77953C3.83057 3.60002 3.98842 3.45448 4.18311 3.45448H5.87702C6.07171 3.45448 6.22956 3.60002 6.22956 3.77953V4.32987C6.6298 3.77608 7.22462 3.34863 8.49107 3.34863C11.2955 3.34863 11.2795 5.76433 11.2795 7.09163V10.1447Z" fill="#536083"/>
</svg>
