<svg width="14" height="10" viewBox="0 0 14 10" fill="none" xmlns="http://www.w3.org/2000/svg">
<path d="M12.6273 0H1.21661C1.02931 0 0.853954 0.0424541 0.695312 0.11243L6.89492 5.82812L8.28446 4.59696C8.28446 4.59696 8.28457 4.59683 8.2846 4.59678C8.28462 4.59673 8.28473 4.59668 8.28473 4.59668L13.1488 0.112529C12.9901 0.0425039 12.8147 0 12.6273 0Z" fill="#536083"/>
<path d="M13.7224 0.641602L9.14502 4.86129L13.7222 9.08105C13.7981 8.9348 13.8441 8.77314 13.8441 8.60046V1.12202C13.8441 0.949439 13.7982 0.787805 13.7224 0.641602Z" fill="#536083"/>
<path d="M0.121949 0.641602C0.0460485 0.787854 0 0.949512 0 1.12219V8.60059C0 8.77317 0.0459944 8.93485 0.121841 9.08105L4.69919 4.86139L0.121949 0.641602Z" fill="#536083"/>
<path d="M8.57162 5.39067L7.1819 6.62189C7.10267 6.69493 6.99889 6.73145 6.89514 6.73145C6.79139 6.73145 6.68758 6.69493 6.60839 6.62189L5.27274 5.39062L0.695312 9.61014C0.853981 9.68016 1.02944 9.72266 1.2168 9.72266H12.6275C12.8148 9.72266 12.9902 9.68021 13.1488 9.61024L8.57162 5.39067Z" fill="#536083"/>
</svg>
