<svg width="36" height="14" viewBox="0 0 36 14" fill="none" xmlns="http://www.w3.org/2000/svg">
<path d="M7.73057 7.37256C7.73057 7.22611 7.64917 7.08769 7.51899 7.01446L4.06873 5.02896C4.0117 4.99637 3.94664 4.9801 3.88158 4.97193H3.84898C3.78393 4.97193 3.7188 4.99637 3.66184 5.02896L0.211575 7.01446C0.081321 7.08769 0 7.22604 0 7.37256L0.00816731 12.7107C0.00816731 12.7839 0.048863 12.8571 0.11392 12.8897C0.179047 12.9304 0.260368 12.9304 0.317398 12.8897L2.36803 11.7179C2.49821 11.6447 2.5796 11.5063 2.5796 11.3599V8.86168C2.5796 8.71523 2.66092 8.57688 2.79118 8.50366L3.66184 7.99912C3.72697 7.95842 3.80019 7.94209 3.87341 7.94209C3.94664 7.94209 4.01986 7.95842 4.07689 7.99912L4.94756 8.50366C5.07781 8.57688 5.15913 8.71517 5.15913 8.86168V11.3599C5.15913 11.5063 5.24052 11.6447 5.37071 11.7179L7.42133 12.8897C7.48646 12.9304 7.56778 12.9304 7.63291 12.8897C7.69804 12.8571 7.73873 12.7839 7.73873 12.7107L7.73057 7.37256ZM24.3146 0.0244491C24.2496 -0.0081497 24.1682 -0.0081497 24.1112 0.0244491C24.0461 0.0651448 24.0054 0.130202 24.0054 0.203426V5.49281C24.0054 5.5416 23.981 5.5904 23.9322 5.623C23.8834 5.64736 23.8345 5.64736 23.7857 5.623L22.9232 5.12662C22.8599 5.09061 22.7884 5.07168 22.7156 5.07168C22.6429 5.07168 22.5713 5.09061 22.5081 5.12662L19.0578 7.12029C18.9277 7.19351 18.8463 7.33186 18.8463 7.47831V11.4575C18.8463 11.6039 18.9277 11.7423 19.0578 11.8156L22.5081 13.8092C22.5713 13.8452 22.6429 13.8642 22.7156 13.8642C22.7884 13.8642 22.8599 13.8452 22.9232 13.8092L26.3734 11.8156C26.5036 11.7423 26.585 11.604 26.585 11.4575V1.53801C26.585 1.38339 26.5036 1.24511 26.3734 1.17181L24.3147 0.0244491H24.3146ZM23.9973 10.1474C23.9973 10.1881 23.981 10.2206 23.9484 10.2369L22.7685 10.9204C22.7521 10.9284 22.734 10.9326 22.7156 10.9326C22.6973 10.9326 22.6792 10.9284 22.6627 10.9204L21.4828 10.2369C21.4502 10.2206 21.434 10.1799 21.434 10.1474V8.78029C21.434 8.7396 21.4502 8.70707 21.4828 8.6908L22.6627 8.00721C22.6792 7.99917 22.6973 7.995 22.7156 7.995C22.734 7.995 22.7521 7.99917 22.7685 8.00721L23.9484 8.6908C23.981 8.707 23.9973 8.74776 23.9973 8.78029V10.1474ZM35.7965 8.74776C35.9268 8.67454 36 8.53619 36 8.38967V7.42135C36 7.2749 35.9186 7.13655 35.7965 7.06333L32.3707 5.07783C32.3075 5.04183 32.236 5.02291 32.1632 5.02291C32.0904 5.02291 32.0189 5.04183 31.9557 5.07783L28.5054 7.07142C28.3752 7.14465 28.2939 7.283 28.2939 7.42952V11.4087C28.2939 11.5551 28.3752 11.6935 28.5054 11.7667L31.9313 13.7197C32.0615 13.7929 32.2161 13.7929 32.3382 13.7197L34.4132 12.5643C34.4783 12.5317 34.519 12.4585 34.519 12.3852C34.519 12.312 34.4783 12.2388 34.4132 12.2062L30.9466 10.2125C30.8816 10.1719 30.8409 10.1068 30.8409 10.0336V8.78853C30.8409 8.71531 30.8816 8.64208 30.9466 8.60948L32.0289 7.99102C32.0606 7.97108 32.0973 7.9605 32.1347 7.9605C32.1722 7.9605 32.2088 7.97108 32.2405 7.99102L33.3227 8.60948C33.3879 8.65018 33.4286 8.71523 33.4286 8.78853V9.76501C33.4286 9.83824 33.4693 9.91146 33.5343 9.94399C33.5994 9.98469 33.6808 9.98469 33.7459 9.94399L35.7965 8.74776Z" fill="#333333"/>
<path d="M32.1105 8.56053C32.1226 8.55258 32.1367 8.54834 32.1512 8.54834C32.1656 8.54834 32.1797 8.55258 32.1918 8.56053L32.851 8.94298C32.8754 8.95917 32.8917 8.98361 32.8917 9.0162V9.78111C32.8917 9.81364 32.8754 9.83808 32.851 9.85434L32.1918 10.2368C32.1797 10.2447 32.1656 10.249 32.1512 10.249C32.1367 10.249 32.1226 10.2447 32.1105 10.2368L31.4513 9.85434C31.4269 9.83808 31.4106 9.81364 31.4106 9.78111V9.0162C31.4106 8.98361 31.4269 8.95917 31.4513 8.94298L32.1105 8.56053Z" fill="#539E43"/>
<mask id="mask0" mask-type="alpha" maskUnits="userSpaceOnUse" x="9" y="5" width="9" height="9">
<path d="M13.5018 5.09447C13.4386 5.05848 13.3671 5.03955 13.2943 5.03955C13.2216 5.03955 13.1501 5.05848 13.0868 5.09447L9.661 7.07173C9.53074 7.14496 9.45752 7.28331 9.45752 7.42976V11.3927C9.45752 11.5392 9.53891 11.6775 9.661 11.7508L13.0868 13.7282C13.1501 13.7641 13.2216 13.7831 13.2943 13.7831C13.3671 13.7831 13.4386 13.7641 13.5018 13.7282L16.9277 11.7508C17.0579 11.6775 17.1312 11.5392 17.1312 11.3927V7.42983C17.1312 7.28338 17.0497 7.14503 16.9277 7.0718L13.5018 5.09447Z" fill="white"/>
</mask>
<g mask="url(#mask0)">
<path d="M13.5003 5.09447C13.4371 5.05848 13.3656 5.03955 13.2929 5.03955C13.2201 5.03955 13.1486 5.05848 13.0854 5.09447L9.65953 7.07173C9.52928 7.14496 9.45605 7.28331 9.45605 7.42976V11.3927C9.45605 11.5392 9.53745 11.6775 9.65953 11.7508L13.0854 13.7282C13.1486 13.7641 13.2201 13.7831 13.2929 13.7831C13.3656 13.7831 13.4371 13.7641 13.5003 13.7282L16.9263 11.7508C17.0564 11.6775 17.1297 11.5392 17.1297 11.3927V7.42983C17.1297 7.28338 17.0483 7.14503 16.9263 7.0718L13.5003 5.09447Z" fill="url(#paint0_linear)"/>
<path d="M16.9334 7.07174L13.4913 5.09441C13.4575 5.07733 13.422 5.06369 13.3855 5.05371L9.52832 11.6613C9.56027 11.7004 9.59886 11.7334 9.64231 11.759L13.0844 13.7364C13.1821 13.7934 13.296 13.8096 13.4017 13.777L17.0229 7.1532C16.9985 7.12067 16.9659 7.09617 16.9334 7.07181V7.07174Z" fill="url(#paint1_linear)"/>
<path fill-rule="evenodd" clip-rule="evenodd" d="M16.9427 11.7507C17.0404 11.6937 17.1136 11.5961 17.1462 11.4903L13.3703 5.04549C13.2726 5.02923 13.1668 5.03732 13.0774 5.09428L9.65967 7.06359L13.3459 13.7851C13.3995 13.7763 13.4515 13.7599 13.5005 13.7363L16.9427 11.7508L16.9427 11.7507Z" fill="url(#paint2_linear)"/>
<path fill-rule="evenodd" clip-rule="evenodd" d="M16.9416 11.7507L13.5076 13.7281C13.4592 13.7528 13.4069 13.7693 13.353 13.7769L13.4182 13.899L17.2264 11.6938V11.645L17.1288 11.4822C17.1125 11.5961 17.0393 11.6938 16.9416 11.7507Z" fill="url(#paint3_linear)"/>
<path fill-rule="evenodd" clip-rule="evenodd" d="M16.9416 11.7507L13.5076 13.7281C13.4592 13.7528 13.4069 13.7693 13.353 13.7769L13.4182 13.899L17.2264 11.6938V11.645L17.1288 11.4822C17.1125 11.5961 17.0393 11.6938 16.9416 11.7507Z" fill="url(#paint4_linear)"/>
</g>
<defs>
<linearGradient id="paint0_linear" x1="14.6886" y1="6.56853" x2="10.9335" y2="12.4688" gradientUnits="userSpaceOnUse">
<stop stop-color="#41873F"/>
<stop offset="0.3288" stop-color="#418B3D"/>
<stop offset="0.6352" stop-color="#419637"/>
<stop offset="0.9319" stop-color="#3FA92D"/>
<stop offset="1" stop-color="#3FAE2A"/>
</linearGradient>
<linearGradient id="paint1_linear" x1="12.7718" y1="9.87545" x2="22.1761" y2="4.76604" gradientUnits="userSpaceOnUse">
<stop offset="0.1376" stop-color="#41873F"/>
<stop offset="0.4032" stop-color="#54A044"/>
<stop offset="0.7136" stop-color="#66B848"/>
<stop offset="0.9081" stop-color="#6CC04A"/>
</linearGradient>
<linearGradient id="paint2_linear" x1="9.33108" y1="9.41132" x2="17.2584" y2="9.41132" gradientUnits="userSpaceOnUse">
<stop offset="0.09192" stop-color="#6CC04A"/>
<stop offset="0.2864" stop-color="#66B848"/>
<stop offset="0.5968" stop-color="#54A044"/>
<stop offset="0.8624" stop-color="#41873F"/>
</linearGradient>
<linearGradient id="paint3_linear" x1="9.33006" y1="12.6972" x2="17.2573" y2="12.6972" gradientUnits="userSpaceOnUse">
<stop offset="0.09192" stop-color="#6CC04A"/>
<stop offset="0.2864" stop-color="#66B848"/>
<stop offset="0.5968" stop-color="#54A044"/>
<stop offset="0.8624" stop-color="#41873F"/>
</linearGradient>
<linearGradient id="paint4_linear" x1="18.4122" y1="6.38103" x2="16.4039" y2="16.9044" gradientUnits="userSpaceOnUse">
<stop stop-color="#41873F"/>
<stop offset="0.3288" stop-color="#418B3D"/>
<stop offset="0.6352" stop-color="#419637"/>
<stop offset="0.9319" stop-color="#3FA92D"/>
<stop offset="1" stop-color="#3FAE2A"/>
</linearGradient>
</defs>
</svg>
