<svg width="36" height="36" viewBox="0 0 36 36" fill="none" xmlns="http://www.w3.org/2000/svg">
<path d="M19.4886 18.7617L19.2708 16.8746L18.291 16.1488V0.362549L28.3434 3.5198L34.6942 12.302L35.0934 22.1367L30.5571 30.1568L22.4644 34.9109H14.408L7.3125 32.062L2.25 25.8745L0.5625 18.7617L1.6875 11.812L5.625 6.18695L16.3125 16.8746L16.875 19.1245L18.291 19.687L19.4886 18.7617Z" fill="#FFF6E3"/>
<path d="M30.7277 5.27188C27.352 1.89624 22.7735 -7.25784e-05 17.9996 2.08341e-09C17.6789 2.08341e-09 17.419 0.259983 17.419 0.580644V5.2258C17.419 5.54646 17.6789 5.80644 17.9996 5.80644C18.3203 5.80644 18.5802 5.54646 18.5802 5.2258V1.17116C27.8745 1.49167 35.1491 9.28602 34.8286 18.5802C34.508 27.8745 26.7137 35.1491 17.4195 34.8286C8.12524 34.508 0.850643 26.7136 1.17116 17.4195C1.31813 13.157 3.07712 9.10914 6.09292 6.09335C6.31566 5.86269 6.30928 5.49507 6.07862 5.27232C5.85362 5.05501 5.49688 5.05501 5.27188 5.27232C-1.75746 12.3018 -1.75725 23.6988 5.27225 30.7281C12.3017 37.7575 23.6987 37.7572 30.728 30.7278C37.7574 23.6983 37.7572 12.3012 30.7277 5.27188Z" fill="#FDB400"/>
<path d="M18.0023 15.6758C17.589 15.6778 17.1839 15.7916 16.83 16.005L8.55872 7.73377C8.32806 7.51102 7.96044 7.51741 7.73769 7.74807C7.52038 7.97307 7.52038 8.3298 7.73769 8.5548L16.009 16.8261C15.7955 17.18 15.6818 17.585 15.6797 17.9984C15.6797 19.2811 16.7196 20.321 18.0023 20.321C19.285 20.321 20.3249 19.2811 20.3249 17.9984C20.3249 16.7157 19.285 15.6758 18.0023 15.6758ZM18.0023 19.1597C17.3609 19.1597 16.841 18.6398 16.841 17.9984C16.841 17.357 17.3609 16.8371 18.0023 16.8371C18.6437 16.8371 19.1636 17.357 19.1636 17.9984C19.1636 18.6398 18.6437 19.1597 18.0023 19.1597Z" fill="#FDB400"/>
</svg>
