<svg width="48" height="48" viewBox="0 0 48 48" fill="none" xmlns="http://www.w3.org/2000/svg">
<circle cx="24" cy="24" r="24" fill="#3C50E0"/>
<path d="M20.5 32.9999H17.8C17.3226 32.9999 16.8648 32.8102 16.5272 32.4727C16.1896 32.1351 16 31.6773 16 31.1999V24.8999C16 24.4226 16.1896 23.9647 16.5272 23.6272C16.8648 23.2896 17.3226 23.0999 17.8 23.0999H20.5M26.7999 21.3V17.7C26.7999 16.9839 26.5155 16.2972 26.0091 15.7908C25.5028 15.2845 24.816 15 24.0999 15L20.5 23.0999V32.9999H30.6519C31.086 33.0048 31.5072 32.8527 31.838 32.5715C32.1688 32.2903 32.3868 31.8991 32.4519 31.4699L33.6939 23.3699C33.733 23.112 33.7156 22.8486 33.6429 22.598C33.5701 22.3474 33.4438 22.1156 33.2726 21.9187C33.1013 21.7218 32.8894 21.5645 32.6513 21.4577C32.4133 21.3508 32.1548 21.297 31.8939 21.3H26.7999Z" stroke="#FDFDFD" stroke-width="2" stroke-linecap="round" stroke-linejoin="round"/>
</svg>
