<svg width="44" height="44" viewBox="0 0 44 44" fill="none" xmlns="http://www.w3.org/2000/svg">
<rect width="44" height="44" rx="4" fill="#FFF1F2"/>
<path d="M25.2719 29.7281V28.0918C25.2719 27.2239 24.9271 26.3915 24.3134 25.7778C23.6997 25.1641 22.8673 24.8193 21.9994 24.8193H16.2725C15.4046 24.8193 14.5722 25.1641 13.9585 25.7778C13.3448 26.3915 13 27.2239 13 28.0918V29.7281" stroke="#FF5670" stroke-width="2" stroke-linecap="round" stroke-linejoin="round"/>
<path d="M19.1328 21.545C20.9402 21.545 22.4053 20.0798 22.4053 18.2725C22.4053 16.4651 20.9402 15 19.1328 15C17.3255 15 15.8604 16.4651 15.8604 18.2725C15.8604 20.0798 17.3255 21.545 19.1328 21.545Z" stroke="#FF5670" stroke-width="2" stroke-linecap="round" stroke-linejoin="round"/>
<path d="M28.5459 19.0928V24.0015" stroke="#FF5670" stroke-width="2" stroke-linecap="round" stroke-linejoin="round"/>
<path d="M31.0015 21.5461H26.0928" stroke="#FF5670" stroke-width="2" stroke-linecap="round" stroke-linejoin="round"/>
</svg>
