<svg width="26" height="24" viewBox="0 0 26 24" fill="none" xmlns="http://www.w3.org/2000/svg">
<path d="M18.0153 16.7614C18.9747 16.6648 19.7026 15.8606 19.6695 14.8954C19.6365 13.9303 18.8093 13.1582 17.8167 13.1582H17.7506C16.7248 13.1904 15.9308 14.0268 15.9639 15.0241C15.997 15.5067 16.1955 15.9249 16.4932 16.2144C15.3683 18.37 13.6479 19.9463 11.0672 21.2654C9.31358 22.1662 7.49389 22.4879 5.67419 22.2628C4.18529 22.0697 3.02727 21.4263 2.29927 20.3646C1.24058 18.7882 1.14136 17.083 2.0347 15.378C2.66337 14.1555 3.65584 13.2546 4.28451 12.8042C4.15218 12.386 3.95362 11.6783 3.8544 11.1636C-0.94311 14.5416 -0.446775 19.1099 1.00902 21.2654C2.10082 22.874 4.31762 23.8713 6.76599 23.8713C7.42767 23.8713 8.08935 23.8069 8.75113 23.6462C12.9862 22.8418 16.1956 20.3968 18.0153 16.7614ZM23.8384 12.7721C21.3239 9.90884 17.6182 8.33246 13.3832 8.33246H12.8538C12.5561 7.75338 11.9274 7.36727 11.2326 7.36727H11.1664C10.1408 7.39946 9.34679 8.23588 9.3798 9.23328C9.41291 10.1984 10.24 10.9705 11.2326 10.9705H11.2987C12.0266 10.9383 12.6553 10.4879 12.92 9.87664H13.5155C16.0301 9.87664 18.4123 10.5844 20.5629 11.9678C22.2172 13.0295 23.4083 14.4129 24.07 16.0858C24.6325 17.437 24.5993 18.756 24.0038 19.8821C23.0774 21.5871 21.5224 22.5201 19.4711 22.5201C18.1476 22.5201 16.8903 22.134 16.2286 21.8444C15.8647 22.1662 15.2029 22.6809 14.7397 23.0027C16.1624 23.6461 17.6182 24 19.0078 24C22.1841 24 24.5332 22.2949 25.4266 20.5898C26.386 18.7238 26.3198 15.5067 23.8384 12.7721ZM7.03066 17.3082C7.06377 18.2734 7.8909 19.0454 8.88347 19.0454H8.94969C9.97536 19.0133 10.7694 18.1768 10.7363 17.1795C10.7033 16.2143 9.87604 15.4423 8.88347 15.4423H8.81735C8.75113 15.4423 8.6518 15.4423 8.58579 15.4744C7.22922 13.2867 6.66676 10.9061 6.86532 8.33237C6.99755 6.40207 7.65933 4.72912 8.81735 3.34571C9.77681 2.15535 11.6296 1.57627 12.887 1.54418C16.394 1.47979 17.8828 5.72641 17.9821 7.43155C18.4123 7.52803 19.1402 7.75329 19.6365 7.91415C19.2394 2.70244 15.9308 0 12.7546 0C9.77681 0 7.03066 2.09116 5.93876 5.17962C4.41685 9.29756 5.40942 13.2546 7.26222 16.3753C7.09688 16.6004 6.99755 16.9544 7.03066 17.3083V17.3082Z" fill="#764ABC"/>
</svg>
