<svg width="44" height="44" viewBox="0 0 44 44" fill="none" xmlns="http://www.w3.org/2000/svg">
<rect width="44" height="44" rx="4" fill="#E1F9EB"/>
<path d="M22 31C26.9706 31 31 26.9706 31 22C31 17.0294 26.9706 13 22 13C17.0294 13 13 17.0294 13 22C13 26.9706 17.0294 31 22 31Z" stroke="#3BBE73" stroke-width="1.5" stroke-linecap="round" stroke-linejoin="round"/>
<path d="M13 22H31" stroke="#3BBE73" stroke-width="1.5" stroke-linecap="round" stroke-linejoin="round"/>
<path d="M21.9994 13C24.2506 15.4645 25.5299 18.6628 25.5994 22C25.5299 25.3372 24.2506 28.5355 21.9994 31C19.7483 28.5355 18.4689 25.3372 18.3994 22C18.4689 18.6628 19.7483 15.4645 21.9994 13V13Z" stroke="#3BBE73" stroke-width="1.5" stroke-linecap="round" stroke-linejoin="round"/>
</svg>
