<svg width="60" height="60" viewBox="0 0 60 60" fill="none" xmlns="http://www.w3.org/2000/svg">
<circle cx="30" cy="30" r="30" fill="#FFF1F2"/>
<path d="M35.4551 39.6367V37.4548C35.4551 36.2975 34.9953 35.1875 34.1769 34.3692C33.3586 33.5508 32.2486 33.0911 31.0913 33.0911H22.3638C21.2064 33.0911 20.0965 33.5508 19.2781 34.3692C18.4598 35.1875 18 36.2975 18 37.4548V39.6367" stroke="#FF5670" stroke-width="2" stroke-linecap="round" stroke-linejoin="round"/>
<path d="M26.7261 28.7275C29.1361 28.7275 31.0898 26.7738 31.0898 24.3638C31.0898 21.9537 29.1361 20 26.7261 20C24.316 20 22.3623 21.9537 22.3623 24.3638C22.3623 26.7738 24.316 28.7275 26.7261 28.7275Z" stroke="#FF5670" stroke-width="2" stroke-linecap="round" stroke-linejoin="round"/>
<path d="M42.0013 39.637V37.4551C42.0006 36.4882 41.6788 35.549 41.0864 34.7848C40.4941 34.0207 39.6647 33.4749 38.7285 33.2332" stroke="#FF5670" stroke-width="2" stroke-linecap="round" stroke-linejoin="round"/>
<path d="M34.3623 20.1414C35.301 20.3817 36.1329 20.9276 36.7271 21.693C37.3212 22.4584 37.6437 23.3998 37.6437 24.3688C37.6437 25.3377 37.3212 26.2791 36.7271 27.0445C36.1329 27.8099 35.301 28.3558 34.3623 28.5962" stroke="#FF5670" stroke-width="2" stroke-linecap="round" stroke-linejoin="round"/>
</svg>
