<svg width="48" height="48" viewBox="0 0 48 48" fill="none" xmlns="http://www.w3.org/2000/svg">
<circle cx="24" cy="24" r="24" fill="#FF5670"/>
<path d="M31 21.6416H17C15.8954 21.6416 15 22.5014 15 23.5619V30.2831C15 31.3437 15.8954 32.2035 17 32.2035H31C32.1046 32.2035 33 31.3437 33 30.2831V23.5619C33 22.5014 32.1046 21.6416 31 21.6416Z" stroke="white" stroke-width="2" stroke-linecap="round" stroke-linejoin="round"/>
<path d="M19 21.6415V17.8008C19 16.5276 19.5268 15.3065 20.4645 14.4061C21.4021 13.5058 22.6739 13 24 13C25.3261 13 26.5979 13.5058 27.5355 14.4061C28.4732 15.3065 29 16.5276 29 17.8008V21.6415" stroke="white" stroke-width="2" stroke-linecap="round" stroke-linejoin="round"/>
</svg>
