<svg width="44" height="44" viewBox="0 0 44 44" fill="none" xmlns="http://www.w3.org/2000/svg">
<rect width="44" height="44" rx="4" fill="#FFF6E3"/>
<path d="M25.2719 29.7254V28.0891C25.2719 27.2212 24.9271 26.3889 24.3134 25.7751C23.6997 25.1614 22.8673 24.8167 21.9994 24.8167H16.2725C15.4046 24.8167 14.5722 25.1614 13.9585 25.7751C13.3448 26.3889 13 27.2212 13 28.0891V29.7254" stroke="#FDB400" stroke-width="2" stroke-linecap="round" stroke-linejoin="round"/>
<path d="M19.1328 21.545C20.9402 21.545 22.4053 20.0798 22.4053 18.2725C22.4053 16.4651 20.9402 15 19.1328 15C17.3255 15 15.8604 16.4651 15.8604 18.2725C15.8604 20.0798 17.3255 21.545 19.1328 21.545Z" stroke="#FDB400" stroke-width="2" stroke-linecap="round" stroke-linejoin="round"/>
<path d="M26.0928 21.5459L27.729 23.1822L31.0015 19.9097" stroke="#FDB400" stroke-width="2" stroke-linecap="round" stroke-linejoin="round"/>
</svg>
