<svg width="48" height="48" viewBox="0 0 48 48" fill="none" xmlns="http://www.w3.org/2000/svg">
<circle cx="24" cy="24" r="24" fill="#3BBE73"/>
<path d="M27.5 32V30.3333C27.5 29.4493 27.1488 28.6014 26.5237 27.9763C25.8986 27.3512 25.0507 27 24.1667 27H18.3333C17.4493 27 16.6014 27.3512 15.9763 27.9763C15.3512 28.6014 15 29.4493 15 30.3333V32" stroke="white" stroke-width="2" stroke-linecap="round" stroke-linejoin="round"/>
<path d="M21.2498 23.6667C23.0908 23.6667 24.5832 22.1743 24.5832 20.3333C24.5832 18.4924 23.0908 17 21.2498 17C19.4089 17 17.9165 18.4924 17.9165 20.3333C17.9165 22.1743 19.4089 23.6667 21.2498 23.6667Z" stroke="white" stroke-width="2" stroke-linecap="round" stroke-linejoin="round"/>
<path d="M28.333 23.6667L29.9997 25.3333L33.333 22" stroke="white" stroke-width="2" stroke-linecap="round" stroke-linejoin="round"/>
</svg>
