<svg width="38" height="38" viewBox="0 0 38 38" fill="none" xmlns="http://www.w3.org/2000/svg">
<path d="M19.0004 23.9095C21.7116 23.9095 23.9095 21.7116 23.9095 19.0004C23.9095 16.2892 21.7116 14.0913 19.0004 14.0913C16.2892 14.0913 14.0913 16.2892 14.0913 19.0004C14.0913 21.7116 16.2892 23.9095 19.0004 23.9095Z" stroke="#3C50E0" stroke-width="2" stroke-linecap="round" stroke-linejoin="round"/>
<path d="M31.1091 23.9091C30.8913 24.4026 30.8263 24.9501 30.9225 25.481C31.0188 26.0118 31.2718 26.5016 31.6491 26.8873L31.7473 26.9855C32.0516 27.2894 32.293 27.6503 32.4576 28.0476C32.6223 28.445 32.7071 28.8708 32.7071 29.3009C32.7071 29.731 32.6223 30.1569 32.4576 30.5542C32.293 30.9515 32.0516 31.3124 31.7473 31.6164C31.4433 31.9206 31.0824 32.162 30.6851 32.3267C30.2878 32.4914 29.8619 32.5762 29.4318 32.5762C29.0017 32.5762 28.5759 32.4914 28.1786 32.3267C27.7813 32.162 27.4203 31.9206 27.1164 31.6164L27.0182 31.5182C26.6325 31.1409 26.1427 30.8879 25.6119 30.7916C25.081 30.6954 24.5336 30.7604 24.04 30.9782C23.556 31.1856 23.1432 31.53 22.8525 31.9691C22.5618 32.4081 22.4057 32.9225 22.4036 33.4491V33.7273C22.4036 34.5953 22.0588 35.4277 21.4451 36.0414C20.8313 36.6552 19.9989 37 19.1309 37C18.2629 37 17.4305 36.6552 16.8167 36.0414C16.203 35.4277 15.8582 34.5953 15.8582 33.7273V33.58C15.8455 33.0384 15.6702 32.5131 15.355 32.0724C15.0398 31.6318 14.5994 31.2961 14.0909 31.1091C13.5974 30.8913 13.0499 30.8263 12.519 30.9225C11.9882 31.0188 11.4984 31.2718 11.1127 31.6491L11.0145 31.7473C10.7106 32.0516 10.3497 32.293 9.95235 32.4576C9.55505 32.6223 9.12918 32.7071 8.69909 32.7071C8.269 32.7071 7.84313 32.6223 7.44583 32.4576C7.04853 32.293 6.68758 32.0516 6.38364 31.7473C6.07935 31.4433 5.83796 31.0824 5.67326 30.6851C5.50856 30.2878 5.42379 29.8619 5.42379 29.4318C5.42379 29.0017 5.50856 28.5759 5.67326 28.1786C5.83796 27.7813 6.07935 27.4203 6.38364 27.1164L6.48182 27.0182C6.85906 26.6325 7.11212 26.1427 7.20837 25.6119C7.30462 25.081 7.23964 24.5336 7.02182 24.04C6.81439 23.556 6.46996 23.1432 6.03094 22.8525C5.59192 22.5618 5.07747 22.4057 4.55091 22.4036H4.27273C3.40475 22.4036 2.57232 22.0588 1.95856 21.4451C1.3448 20.8313 1 19.9989 1 19.1309C1 18.2629 1.3448 17.4305 1.95856 16.8167C2.57232 16.203 3.40475 15.8582 4.27273 15.8582H4.42C4.96163 15.8455 5.48692 15.6702 5.92758 15.355C6.36824 15.0398 6.7039 14.5994 6.89091 14.0909C7.10873 13.5974 7.17371 13.0499 7.07746 12.519C6.98121 11.9882 6.72815 11.4984 6.35091 11.1127L6.25273 11.0145C5.94844 10.7106 5.70705 10.3497 5.54235 9.95235C5.37765 9.55505 5.29288 9.12918 5.29288 8.69909C5.29288 8.269 5.37765 7.84313 5.54235 7.44583C5.70705 7.04853 5.94844 6.68758 6.25273 6.38364C6.55668 6.07935 6.91762 5.83796 7.31492 5.67326C7.71223 5.50856 8.13809 5.42379 8.56818 5.42379C8.99827 5.42379 9.42414 5.50856 9.82144 5.67326C10.2187 5.83796 10.5797 6.07935 10.8836 6.38364L10.9818 6.48182C11.3675 6.85906 11.8573 7.11212 12.3881 7.20837C12.919 7.30462 13.4664 7.23964 13.96 7.02182H14.0909C14.5749 6.81439 14.9877 6.46996 15.2784 6.03094C15.5691 5.59192 15.7252 5.07747 15.7273 4.55091V4.27273C15.7273 3.40475 16.0721 2.57232 16.6858 1.95856C17.2996 1.3448 18.132 1 19 1C19.868 1 20.7004 1.3448 21.3142 1.95856C21.9279 2.57232 22.2727 3.40475 22.2727 4.27273V4.42C22.2748 4.94656 22.4309 5.46101 22.7216 5.90003C23.0123 6.33905 23.4251 6.68348 23.9091 6.89091C24.4026 7.10873 24.9501 7.17371 25.481 7.07746C26.0118 6.98121 26.5016 6.72815 26.8873 6.35091L26.9855 6.25273C27.2894 5.94844 27.6503 5.70705 28.0476 5.54235C28.445 5.37765 28.8708 5.29288 29.3009 5.29288C29.731 5.29288 30.1569 5.37765 30.5542 5.54235C30.9515 5.70705 31.3124 5.94844 31.6164 6.25273C31.9206 6.55668 32.162 6.91762 32.3267 7.31492C32.4914 7.71223 32.5762 8.13809 32.5762 8.56818C32.5762 8.99827 32.4914 9.42414 32.3267 9.82144C32.162 10.2187 31.9206 10.5797 31.6164 10.8836L31.5182 10.9818C31.1409 11.3675 30.8879 11.8573 30.7916 12.3881C30.6954 12.919 30.7604 13.4664 30.9782 13.96V14.0909C31.1856 14.5749 31.53 14.9877 31.9691 15.2784C32.4081 15.5691 32.9225 15.7252 33.4491 15.7273H33.7273C34.5953 15.7273 35.4277 16.0721 36.0414 16.6858C36.6552 17.2996 37 18.132 37 19C37 19.868 36.6552 20.7004 36.0414 21.3142C35.4277 21.9279 34.5953 22.2727 33.7273 22.2727H33.58C33.0534 22.2748 32.539 22.4309 32.1 22.7216C31.6609 23.0123 31.3165 23.4251 31.1091 23.9091V23.9091Z" stroke="#3C50E0" stroke-width="2" stroke-linecap="round" stroke-linejoin="round"/>
</svg>
