<svg width="48" height="48" viewBox="0 0 48 48" fill="none" xmlns="http://www.w3.org/2000/svg">
<circle cx="24" cy="24" r="24" fill="#3BBE73"/>
<path d="M28.5455 32.3635V30.5453C28.5455 29.5809 28.1623 28.656 27.4804 27.974C26.7984 27.2921 25.8735 26.9089 24.9091 26.9089H17.6364C16.6719 26.9089 15.747 27.2921 15.0651 27.974C14.3831 28.656 14 29.5809 14 30.5453V32.3635" stroke="white" stroke-width="2" stroke-linecap="round" stroke-linejoin="round"/>
<path d="M21.2726 23.2727C23.2809 23.2727 24.909 21.6447 24.909 19.6364C24.909 17.6281 23.2809 16 21.2726 16C19.2643 16 17.6362 17.6281 17.6362 19.6364C17.6362 21.6447 19.2643 23.2727 21.2726 23.2727Z" stroke="white" stroke-width="2" stroke-linecap="round" stroke-linejoin="round"/>
<path d="M34.0002 32.3637V30.5455C33.9996 29.7398 33.7315 28.9571 33.2378 28.3204C32.7442 27.6836 32.0531 27.2288 31.2729 27.0273" stroke="white" stroke-width="2" stroke-linecap="round" stroke-linejoin="round"/>
<path d="M27.6362 16.1179C28.4184 16.3182 29.1117 16.7731 29.6068 17.4109C30.1019 18.0488 30.3706 18.8332 30.3706 19.6406C30.3706 20.4481 30.1019 21.2325 29.6068 21.8704C29.1117 22.5082 28.4184 22.9631 27.6362 23.1634" stroke="white" stroke-width="2" stroke-linecap="round" stroke-linejoin="round"/>
</svg>
