<svg width="421" height="447" viewBox="0 0 421 447" fill="none" xmlns="http://www.w3.org/2000/svg">
<rect y="189" width="46" height="46" rx="8" fill="#53C1DE"/>
<path d="M4.6001 212.035C4.6001 214.853 7.35633 217.483 11.7015 218.966C10.8338 223.326 11.5461 226.84 13.925 228.21C16.3701 229.617 20.0128 228.643 23.4703 225.626C26.8406 228.521 30.2467 229.66 32.6235 228.287C35.0664 226.876 35.8092 223.123 34.9176 218.626C39.4435 217.133 41.9751 214.89 41.9751 212.035C41.9751 209.283 39.2139 206.903 34.9271 205.43C35.8871 200.747 35.0737 197.318 32.5963 195.892C30.2079 194.517 26.7622 195.716 23.3424 198.686C19.7845 195.533 16.3729 194.571 13.8981 196.001C11.5119 197.379 10.831 200.958 11.7015 205.399C7.50293 206.86 4.6001 209.295 4.6001 212.035Z" fill="#53C1DE"/>
<path d="M34.1519 206.983C33.7983 206.864 33.4417 206.753 33.0824 206.652C33.142 206.414 33.1971 206.174 33.2476 205.934C34.0572 202.069 33.5279 198.956 31.7203 197.931C29.9873 196.948 27.1528 197.973 24.2902 200.423C24.0081 200.665 23.7323 200.914 23.463 201.17C23.2826 201 23.0991 200.833 22.9125 200.67C19.9124 198.05 16.9052 196.946 15.0995 197.974C13.3681 198.959 12.8552 201.887 13.5841 205.549C13.6566 205.912 13.7384 206.273 13.8296 206.631C13.4041 206.75 12.9931 206.877 12.6 207.012C9.08274 208.218 6.83643 210.108 6.83643 212.068C6.83643 214.093 9.24771 216.124 12.9114 217.356C13.2085 217.455 13.508 217.547 13.8097 217.632C13.7117 218.018 13.6247 218.407 13.5488 218.798C12.8539 222.397 13.3966 225.255 15.1235 226.235C16.9071 227.246 19.9006 226.206 22.8156 223.701C23.046 223.502 23.2773 223.292 23.5088 223.072C23.8005 223.349 24.1 223.618 24.4069 223.878C27.2305 226.267 30.019 227.232 31.7444 226.25C33.5264 225.236 34.1054 222.166 33.3535 218.431C33.2962 218.145 33.2293 217.854 33.1543 217.557C33.3645 217.496 33.5708 217.433 33.7721 217.367C37.5808 216.127 40.0586 214.12 40.0586 212.068C40.0586 210.101 37.74 208.198 34.1519 206.983Z" fill="white"/>
<path d="M33.1541 216.077C32.9727 216.137 32.7865 216.195 32.5968 216.251C32.1768 214.93 31.61 213.526 30.9165 212.075C31.5784 210.659 32.1232 209.273 32.5315 207.961C32.8708 208.058 33.2004 208.161 33.5179 208.27C36.5885 209.32 38.4615 210.872 38.4615 212.068C38.4615 213.342 36.4386 214.996 33.1543 216.077H33.1541ZM31.7913 218.76C32.1234 220.426 32.1708 221.932 31.9508 223.11C31.7531 224.168 31.3558 224.873 30.8644 225.156C29.8187 225.757 27.5823 224.975 25.1707 222.914C24.8941 222.678 24.6156 222.425 24.3362 222.158C25.2712 221.143 26.2057 219.962 27.1176 218.65C28.7218 218.509 30.2373 218.278 31.6117 217.962C31.6793 218.234 31.7395 218.5 31.7913 218.76ZM18.0093 225.052C16.9876 225.41 16.1739 225.42 15.6821 225.139C14.6354 224.539 14.2004 222.224 14.7938 219.12C14.8644 218.753 14.9452 218.388 15.0361 218.025C16.3952 218.324 17.8997 218.539 19.5078 218.668C20.4257 219.952 21.3872 221.131 22.3561 222.164C22.1502 222.362 21.9394 222.554 21.7239 222.742C20.4364 223.86 19.1464 224.653 18.0094 225.052H18.0093ZM13.2229 216.07C11.6049 215.52 10.2687 214.806 9.35281 214.027C8.52985 213.327 8.11426 212.632 8.11426 212.068C8.11426 210.868 9.91569 209.337 12.9201 208.297C13.2972 208.167 13.6781 208.048 14.0622 207.94C14.4775 209.282 15.0222 210.684 15.6795 212.103C15.0137 213.542 14.4612 214.967 14.0421 216.324C13.767 216.246 13.4938 216.161 13.2229 216.07ZM14.8274 205.222C14.2038 202.056 14.6179 199.668 15.6601 199.069C16.7703 198.431 19.2249 199.341 21.8122 201.623C21.9775 201.768 22.1436 201.921 22.31 202.079C21.346 203.107 20.3934 204.278 19.4834 205.554C17.9228 205.697 16.4289 205.928 15.0555 206.237C14.9709 205.901 14.8949 205.562 14.8274 205.222V205.222ZM29.1406 208.732C28.8163 208.176 28.4798 207.626 28.1316 207.084C29.1904 207.217 30.2047 207.393 31.1572 207.609C30.8713 208.52 30.5149 209.471 30.0952 210.447C29.7885 209.869 29.4703 209.298 29.1406 208.732ZM23.3037 203.085C23.9575 203.789 24.6123 204.574 25.2564 205.427C23.9499 205.365 22.6412 205.365 21.3346 205.426C21.9793 204.581 22.6397 203.797 23.3037 203.085ZM17.4294 208.742C17.1038 209.303 16.7916 209.871 16.4927 210.446C16.0799 209.474 15.7268 208.518 15.4383 207.594C16.3851 207.384 17.3947 207.212 18.4466 207.081C18.0945 207.627 17.7553 208.181 17.4294 208.742ZM18.4769 217.156C17.3902 217.035 16.3653 216.872 15.4188 216.667C15.7118 215.728 16.0727 214.751 16.4944 213.758C16.7944 214.333 17.1081 214.902 17.4351 215.463C17.7688 216.035 18.1161 216.6 18.4769 217.156ZM23.3429 221.151C22.6711 220.431 22.001 219.634 21.3465 218.777C21.9818 218.802 22.6295 218.815 23.2879 218.815C23.9643 218.815 24.6329 218.8 25.2909 218.771C24.6448 219.643 23.9923 220.44 23.3429 221.151ZM30.1087 213.707C30.5522 214.711 30.9261 215.683 31.223 216.606C30.2608 216.824 29.2222 217 28.1277 217.13C28.4784 216.578 28.818 216.019 29.1464 215.453C29.4802 214.878 29.801 214.296 30.1087 213.707ZM27.9184 214.75C27.4158 215.617 26.8848 216.468 26.3265 217.301C25.342 217.371 24.3246 217.407 23.2879 217.407C22.2554 217.407 21.2509 217.375 20.2836 217.313C19.7108 216.482 19.1698 215.629 18.6619 214.758C18.1563 213.891 17.6841 213.005 17.2462 212.102C17.683 211.199 18.1538 210.313 18.6576 209.445V209.445C19.1613 208.577 19.698 207.729 20.2665 206.901C21.2534 206.827 22.2652 206.788 23.288 206.788C24.3154 206.788 25.3285 206.827 26.3151 206.902C26.8779 207.728 27.4111 208.574 27.9138 209.438C28.4194 210.303 28.8965 211.185 29.3443 212.082C28.9011 212.988 28.4255 213.878 27.9185 214.75H27.9184ZM30.8427 199.027C31.9537 199.664 32.3859 202.23 31.6878 205.596C31.642 205.816 31.5923 206.034 31.5386 206.252C30.162 205.936 28.667 205.701 27.1019 205.555C26.1901 204.266 25.2454 203.093 24.297 202.078C24.5455 201.84 24.8 201.609 25.0601 201.383C27.5099 199.266 29.7994 198.429 30.8427 199.027Z" fill="#53C1DE"/>
<path d="M23.4482 209.061C25.0361 209.061 26.3232 210.348 26.3232 211.936C26.3232 213.524 25.0361 214.811 23.4482 214.811C21.8605 214.811 20.5732 213.524 20.5732 211.936C20.5732 210.348 21.8605 209.061 23.4482 209.061Z" fill="white"/>
<rect x="330" y="38.48" width="80" height="80" rx="12" fill="#FFC419"/>
<path d="M351.987 78.4894C351.987 85.624 356.133 91.789 362.145 94.711L353.547 71.1543C352.517 73.4622 351.985 75.9618 351.987 78.4894ZM382.178 77.5799C382.178 75.3524 381.378 73.8098 380.692 72.6091C379.778 71.1244 378.922 69.8671 378.922 68.3825C378.922 66.7256 380.178 65.1834 381.948 65.1834C382.028 65.1834 382.104 65.1933 382.182 65.1978C378.975 62.26 374.703 60.4663 370.011 60.4663C363.714 60.4663 358.174 63.697 354.951 68.5903C355.374 68.603 355.773 68.6116 356.111 68.6116C357.996 68.6116 360.915 68.3828 360.915 68.3828C361.886 68.3255 362.001 69.7526 361.031 69.8675C361.031 69.8675 360.054 69.9824 358.967 70.0393L365.531 89.5622L369.476 77.7325L366.667 70.039C365.697 69.982 364.777 69.8671 364.777 69.8671C363.806 69.8102 363.92 68.3252 364.891 68.3825C364.891 68.3825 367.867 68.6112 369.639 68.6112C371.523 68.6112 374.442 68.3825 374.442 68.3825C375.414 68.3252 375.528 69.7522 374.558 69.8671C374.558 69.8671 373.579 69.982 372.495 70.039L379.008 89.414L380.806 83.4064C381.585 80.9135 382.178 79.1229 382.178 77.5799Z" fill="white"/>
<path d="M370.327 80.0662L364.919 95.7799C366.572 96.2671 368.287 96.5145 370.01 96.5145C372.109 96.5145 374.122 96.1513 375.996 95.4928C375.946 95.4141 375.903 95.331 375.868 95.2445L370.327 80.0662ZM385.826 69.8423C385.903 70.4164 385.947 71.033 385.947 71.6956C385.947 73.5246 385.605 75.5807 384.577 78.1515L379.071 94.0692C384.429 90.9445 388.034 85.1392 388.034 78.4896C388.038 75.4671 387.279 72.4925 385.826 69.8423Z" fill="white"/>
<path d="M370.01 57.48C358.426 57.48 349 66.9048 349 78.4896C349 90.0757 358.425 99.5006 370.01 99.5006C381.595 99.5006 391.022 90.0761 391.022 78.4896C391.021 66.9048 381.595 57.48 370.01 57.48ZM370.01 98.5372C358.957 98.5372 349.963 89.5438 349.963 78.4896C349.963 67.4364 358.956 58.4437 370.01 58.4437C381.063 58.4437 390.056 67.4364 390.056 78.4896C390.056 89.5438 381.063 98.5372 370.01 98.5372Z" fill="white"/>
<g filter="url(#filter0_d)">
<rect x="30" y="45.48" width="84" height="84" rx="12" fill="white"/>
</g>
<path d="M72.4368 62.48C59.4282 62.48 60.2404 67.9606 60.2404 67.9606L60.2549 73.6387H72.6688V75.3435H55.3242C55.3242 75.3435 47 74.4263 47 87.1781C47 99.9302 54.2656 99.478 54.2656 99.478H58.6017V93.5605C58.6017 93.5605 58.3679 86.5018 65.7513 86.5018H78.0637C78.0637 86.5018 84.9812 86.6104 84.9812 80.0067V69.0879C84.9812 69.0879 86.0318 62.48 72.4368 62.48ZM65.5918 66.2984C65.8851 66.2981 66.1757 66.3541 66.4467 66.463C66.7178 66.572 66.9641 66.7318 67.1715 66.9333C67.379 67.1348 67.5434 67.3741 67.6556 67.6375C67.7677 67.9008 67.8253 68.1831 67.825 68.468C67.8253 68.753 67.7677 69.0353 67.6556 69.2986C67.5434 69.562 67.379 69.8013 67.1715 70.0028C66.9641 70.2043 66.7178 70.3641 66.4467 70.4731C66.1757 70.582 65.8851 70.6379 65.5918 70.6377C65.2984 70.6379 65.0079 70.582 64.7368 70.4731C64.4658 70.3641 64.2195 70.2043 64.0121 70.0028C63.8046 69.8013 63.6401 69.562 63.528 69.2986C63.4159 69.0353 63.3583 68.753 63.3585 68.468C63.3583 68.1831 63.4159 67.9008 63.528 67.6375C63.6401 67.3741 63.8046 67.1348 64.0121 66.9333C64.2195 66.7318 64.4658 66.572 64.7368 66.463C65.0079 66.3541 65.2984 66.2981 65.5918 66.2984Z" fill="url(#paint0_linear)"/>
<path d="M72.5634 112.48C85.572 112.48 84.7598 106.851 84.7598 106.851L84.7453 101.02H72.3312V99.269H89.6758C89.6758 99.269 98 100.211 98 87.1142C98 74.0175 90.7344 74.482 90.7344 74.482H86.3983V80.5592C86.3983 80.5592 86.6321 87.8087 79.2487 87.8087H66.9363C66.9363 87.8087 60.0188 87.6972 60.0188 94.4795V105.694C60.0188 105.694 58.9684 112.48 72.5632 112.48H72.5634ZM79.4084 108.559C79.1151 108.559 78.8245 108.502 78.5535 108.39C78.2824 108.278 78.0361 108.114 77.8287 107.907C77.6212 107.7 77.4567 107.454 77.3446 107.184C77.2325 106.913 77.1749 106.623 77.1752 106.33C77.1749 106.038 77.2324 105.748 77.3446 105.477C77.4567 105.207 77.6212 104.961 77.8286 104.754C78.036 104.547 78.2823 104.383 78.5534 104.271C78.8245 104.159 79.115 104.102 79.4084 104.102C79.7018 104.102 79.9923 104.159 80.2633 104.271C80.5344 104.383 80.7807 104.547 80.9881 104.754C81.1956 104.961 81.3601 105.207 81.4722 105.477C81.5843 105.748 81.6419 106.038 81.6417 106.33C81.6419 106.623 81.5843 106.913 81.4722 107.183C81.3601 107.454 81.1956 107.7 80.9881 107.906C80.7807 108.113 80.5344 108.278 80.2633 108.389C79.9923 108.501 79.7018 108.559 79.4084 108.559V108.559Z" fill="url(#paint1_linear)"/>
<rect x="168" width="60" height="60" rx="12" fill="#008ECE"/>
<path d="M193.149 18.6979C187.261 21.1988 183.556 26.1031 183.556 32.4045C183.556 40.4579 190.084 46.9866 198.138 46.9866C206.191 46.9866 212.72 40.4579 212.72 32.4045C212.72 22.7217 203.723 18.8724 203.723 18.8724C203.723 18.8724 201.758 18.0564 200.66 17.3239C200.66 17.3239 199.271 16.4756 196.852 13.3525C196.852 13.3525 196.907 16.9009 193.149 18.6981" fill="#D2EBF3"/>
<path d="M196.679 44.1639C196.166 43.8079 196.288 42.6746 197.676 43.4843C197.676 43.4843 200.631 45.6547 205.31 43.0506C205.674 42.8482 206.12 43.5624 204.963 44.2172C204.963 44.2172 200.235 46.6363 196.679 44.1639Z" fill="#008ECE"/>
<path d="M202.708 40.5636C204.429 40.7651 203.837 41.5925 204.298 41.7201C205.238 41.9805 204.833 40.9538 204.833 40.9538C204.139 39.5659 202.939 39.6527 202.939 39.6527C201.06 39.3634 199.657 41.1564 199.657 41.1564C199.31 41.9225 199.796 41.962 199.975 41.8793C200.886 41.4599 201.44 40.4148 202.708 40.5636Z" fill="#008ECE"/>
<path d="M185.464 39.7373C185.464 39.7373 190.693 44.0631 203.416 34.426C203.416 34.426 209.807 30.4141 209.614 23.5354C209.614 23.5354 207.546 20.5632 204.057 19.0304C203.56 18.8123 199.2 16.433 196.845 13.4492C196.845 13.4492 196.418 22.1052 185.331 25.5225C185.331 25.5225 182.538 29.643 184.061 36.34C184.061 36.34 185.036 39.0551 185.464 39.7374" fill="#F2F6FF"/>
<path d="M193.758 41.3446C193.758 41.3446 189.42 41.4601 189.941 36.8333C189.941 36.8333 190.847 31.6282 196.939 32.7849C196.939 32.7849 198.269 33.074 200.756 34.9826C200.756 34.9826 202.397 36.2478 203.301 36.224C203.301 36.224 204.002 36.2911 205.46 35.3683C205.46 35.3683 208.433 33.0737 209.473 33.1417C209.499 33.1435 211.571 32.9152 211.571 36.2551C211.571 36.2551 211.609 39.9373 208.834 41.171C208.834 41.171 208.101 41.4216 207.31 40.5926C207.31 40.5926 205.036 38.0094 203.917 37.5852C203.917 37.5852 203.272 37.3322 202.414 37.6431C202.414 37.6431 201.855 37.7009 199.561 39.2239C199.561 39.2239 195.705 41.6336 193.758 41.3446Z" fill="#008ECE"/>
<path d="M196.052 24.7458C198.861 20.7234 196.846 13.333 196.846 13.333C196.598 17.3428 193.215 18.666 193.215 18.666C187.157 21.2805 185.332 25.4063 185.332 25.4063C186.63 27.2471 190.076 33.3052 196.052 24.7458Z" fill="#E6F9FF"/>
<path d="M196.845 13.333C196.845 13.333 197.208 16.7069 195.377 17.8056C195.377 17.8056 192.44 19.1728 191.543 19.621C191.543 19.621 187.772 21.8975 186.528 24.0372C186.528 24.0372 183.868 27.5973 187.541 26.7556C187.541 26.7556 194.182 24.8807 196.881 19.2225C196.881 19.2225 197.04 18.7455 196.534 18.2538C196.534 18.2538 198.558 16.7261 196.845 13.333Z" fill="#D2EBF3"/>
<path d="M196.845 13.333C196.845 13.333 196.997 15.6368 195.084 17.5457C195.084 17.5457 194.51 18.355 191.544 19.621C191.544 19.621 188.148 21.3914 186.626 23.8467C186.626 23.8467 184.369 26.5682 187.463 25.8385C187.463 25.8385 193.732 23.5284 196.028 19.2863C196.028 19.2863 196.339 18.8405 195.866 18.3812C195.866 18.3812 198.115 16.6249 196.845 13.333Z" fill="#008ECE"/>
<g filter="url(#filter1_d)">
<rect x="136" y="113.48" width="145" height="145" rx="20" fill="white"/>
</g>
<path d="M196.519 210.513C196.519 210.513 193.138 212.479 198.926 213.145C205.938 213.945 209.522 213.83 217.25 212.367C217.25 212.367 219.282 213.641 222.119 214.745C204.796 222.169 182.913 214.315 196.519 210.513ZM194.402 200.824C194.402 200.824 190.61 203.632 196.402 204.231C203.893 205.004 209.808 205.067 220.045 203.096C220.045 203.096 221.461 204.531 223.687 205.316C202.742 211.441 179.413 205.799 194.402 200.824Z" fill="#5382A1"/>
<path d="M212.25 184.389C216.518 189.304 211.128 193.726 211.128 193.726C211.128 193.726 221.966 188.131 216.989 181.124C212.34 174.591 208.775 171.344 228.075 160.151C228.075 160.151 197.78 167.717 212.25 184.389" fill="#E76F00"/>
<path d="M235.16 217.679C235.16 217.679 237.662 219.741 232.404 221.336C222.405 224.365 190.786 225.28 182.002 221.457C178.845 220.083 184.766 218.177 186.629 217.777C188.571 217.356 189.681 217.434 189.681 217.434C186.17 214.96 166.985 222.291 179.936 224.39C215.256 230.118 244.321 221.811 235.16 217.679ZM198.146 190.786C198.146 190.786 182.063 194.606 192.451 195.993C196.837 196.58 205.58 196.447 213.724 195.765C220.38 195.204 227.064 194.01 227.064 194.01C227.064 194.01 224.717 195.015 223.019 196.174C206.687 200.47 175.135 198.472 184.219 194.078C191.9 190.365 198.146 190.786 198.146 190.786H198.146ZM226.997 206.913C243.6 198.285 235.924 189.995 230.566 191.112C229.252 191.385 228.667 191.622 228.667 191.622C228.667 191.622 229.154 190.858 230.086 190.528C240.685 186.801 248.837 201.519 226.664 207.347C226.664 207.348 226.921 207.118 226.997 206.913Z" fill="#5382A1"/>
<path d="M216.988 142.077C216.988 142.077 226.182 151.275 208.267 165.418C193.9 176.764 204.991 183.233 208.261 190.624C199.875 183.058 193.721 176.397 197.849 170.199C203.909 161.098 220.697 156.687 216.988 142.076" fill="#E76F00"/>
<path d="M199.777 230.291C215.713 231.311 240.185 229.725 240.765 222.184C240.765 222.184 239.651 225.043 227.594 227.313C213.992 229.872 197.216 229.574 187.266 227.933C187.266 227.933 189.303 229.619 199.777 230.291" fill="#5382A1"/>
<g filter="url(#filter2_d)">
<rect x="337" y="345.48" width="60" height="60" rx="12" fill="white"/>
</g>
<path d="M381.125 363.605L378.563 392.289L367.045 395.48L355.56 392.294L353 363.605H381.125Z" fill="#E44D26"/>
<path d="M366.75 392.98L376.363 390.422L378.625 366.105H366.75V392.98Z" fill="#F16529"/>
<path d="M361.814 372.762H366.75V369.23H358L358.083 370.177L358.941 379.91H366.75V376.378H362.132L361.814 372.762ZM362.6 381.676H359.097L359.586 387.222L366.734 389.23L366.75 389.226V385.551L366.735 385.555L362.848 384.493L362.6 381.676Z" fill="#EBEBEB"/>
<path d="M355.5 355.48H357.304V357.337H358.954V355.48H360.757V361.105H358.954V359.221H357.304V361.105H355.5V355.48H355.5ZM363.129 357.345H361.541V355.48H366.522V357.345H364.933V361.105H363.129V357.345H363.129H363.129ZM367.312 355.48H369.193L370.35 357.456L371.505 355.48H373.387V361.105H371.59V358.317L370.35 360.317H370.318L369.077 358.317V361.105H367.312V355.48ZM374.284 355.48H376.089V359.246H378.625V361.105H374.284V355.48H374.284Z" fill="black"/>
<path d="M366.75 379.911H371.359L370.924 384.492L366.75 385.555V389.23L374.422 387.223L374.479 386.626L375.358 377.328L375.449 376.379H366.75V379.911ZM366.75 372.753V372.762H375.79L375.865 371.968L376.036 370.178L376.125 369.23H366.75V372.754V372.753Z" fill="white"/>
<g filter="url(#filter3_d)">
<rect x="77" y="240.48" width="82" height="82" rx="12" fill="white"/>
</g>
<path d="M142.03 280.103L121.056 258.931L119.023 256.88L103.234 272.817L96.0138 280.103C95.6531 280.469 95.4507 280.964 95.4507 281.48C95.4507 281.996 95.6531 282.491 96.0138 282.857L110.439 297.417L119.023 306.08L134.81 290.143L135.056 289.897L142.03 282.868C142.211 282.687 142.355 282.472 142.452 282.234C142.55 281.997 142.601 281.743 142.601 281.485C142.601 281.228 142.55 280.974 142.452 280.737C142.355 280.499 142.211 280.284 142.03 280.103ZM119.023 288.755L111.816 281.48L119.023 274.205L126.228 281.48L119.023 288.755Z" fill="#2684FF"/>
<path d="M119.026 274.165C116.824 271.875 115.582 268.772 115.573 265.533C115.563 262.295 116.787 259.184 118.976 256.88L103.651 272.808L111.991 281.48L119.026 274.165Z" fill="url(#paint2_linear)"/>
<path d="M126.519 281.48L119.026 288.77C121.386 291.065 122.712 294.179 122.712 297.425C122.712 300.671 121.386 303.784 119.026 306.08L135.426 290.137L126.519 281.48Z" fill="url(#paint3_linear)"/>
<g filter="url(#filter4_d)">
<rect x="313" y="201" width="72" height="72" rx="12" fill="white"/>
</g>
<g clip-path="url(#clip0)">
<path d="M328.017 222.531L348.83 215.115L370.205 222.399L366.744 249.937L348.83 259.858L331.197 250.069L328.017 222.531Z" fill="#E23237"/>
<path d="M370.206 222.399L348.832 215.115V259.858L366.745 249.954L370.206 222.399Z" fill="#B52E31"/>
<path d="M348.863 220.339L335.894 249.195L340.739 249.113L343.343 242.603H354.978L357.829 249.195L362.459 249.278L348.863 220.339ZM348.897 229.585L353.28 238.747H345.04L348.897 229.585Z" fill="white"/>
</g>
<rect x="224" y="317" width="64" height="64" rx="8" fill="#A4C639"/>
<path d="M251.168 352.9C252.428 352.9 253.449 353.965 253.449 355.279V365.485C253.449 366.799 252.428 367.864 251.168 367.864C249.908 367.864 248.887 366.799 248.887 365.485V355.279C248.887 353.965 249.908 352.9 251.168 352.9V352.9Z" fill="white"/>
<path d="M245.961 340.63C245.953 340.721 245.947 340.812 245.947 340.904V356.367C245.947 358.029 247.209 359.369 248.776 359.369H263.853C265.419 359.369 266.682 358.029 266.682 356.367V340.904C266.682 340.812 266.678 340.72 266.671 340.63H245.961Z" fill="white"/>
<path d="M261.459 352.901C262.719 352.901 263.741 353.966 263.741 355.28V365.486C263.741 366.8 262.719 367.865 261.459 367.865C260.2 367.865 259.178 366.8 259.178 365.486V355.28C259.178 353.966 260.2 352.901 261.459 352.901V352.901ZM242.281 342.007C243.541 342.007 244.562 343.072 244.562 344.386V354.592C244.562 355.906 243.541 356.971 242.281 356.971C241.021 356.971 240 355.906 240 354.592V344.386C240 343.072 241.021 342.007 242.281 342.007ZM270.346 342.007C271.606 342.007 272.627 343.072 272.627 344.386V354.592C272.627 355.906 271.606 356.971 270.346 356.971C269.087 356.971 268.065 355.906 268.065 354.592V344.386C268.065 343.072 269.087 342.007 270.346 342.007ZM246.027 339.615C246.09 334.866 250.065 330.971 255.167 330.458H257.46C262.562 330.972 266.537 334.866 266.6 339.615H246.027Z" fill="white"/>
<path d="M265.809 330L263.402 334.347M246.822 330L249.228 334.347L246.822 330Z" stroke="white" stroke-width="2" stroke-linecap="round" stroke-linejoin="round"/>
<path d="M253.251 335.359C253.253 336.023 252.726 336.562 252.075 336.564C251.423 336.566 250.893 336.029 250.891 335.365V335.359C250.889 334.695 251.416 334.155 252.068 334.153C252.72 334.151 253.249 334.688 253.251 335.352V335.359ZM262.061 335.359C262.063 336.023 261.536 336.562 260.884 336.564C260.232 336.566 259.702 336.029 259.7 335.365V335.359C259.699 334.695 260.226 334.155 260.877 334.153C261.529 334.151 262.059 334.688 262.061 335.352V335.359Z" fill="#A4C639"/>
<rect x="107" y="375" width="72" height="72" rx="12" fill="white"/>
<path d="M156.467 399.051C156.438 398.846 156.258 398.733 156.11 398.72C155.961 398.708 152.822 398.475 152.822 398.475C152.822 398.475 150.641 396.314 150.402 396.075C150.163 395.835 149.695 395.908 149.513 395.962C149.487 395.969 149.037 396.108 148.293 396.338C147.565 394.245 146.279 392.322 144.018 392.322C143.956 392.322 143.891 392.324 143.827 392.328C143.184 391.478 142.387 391.109 141.699 391.109C136.431 391.109 133.914 397.686 133.125 401.027C131.078 401.661 129.624 402.111 129.438 402.169C128.296 402.527 128.259 402.563 128.109 403.638C127.997 404.452 125.007 427.54 125.007 427.54L148.303 431.898L160.926 429.172C160.926 429.172 156.495 399.256 156.467 399.051H156.467ZM147.006 396.736L145.034 397.345C145.035 397.206 145.036 397.07 145.036 396.92C145.036 395.62 144.855 394.572 144.565 393.742C145.73 393.888 146.506 395.212 147.006 396.736ZM143.119 394C143.443 394.81 143.654 395.974 143.654 397.544C143.654 397.624 143.653 397.697 143.653 397.772C142.371 398.168 140.978 398.599 139.582 399.031C140.365 396.009 141.835 394.55 143.119 394ZM141.554 392.52C141.782 392.52 142.011 392.597 142.23 392.748C140.542 393.541 138.732 395.539 137.968 399.53L134.75 400.525C135.645 397.481 137.77 392.52 141.554 392.52H141.554Z" fill="#95BF46"/>
<path d="M156.109 398.72C155.961 398.708 152.822 398.475 152.822 398.475C152.822 398.475 150.641 396.314 150.402 396.074C150.312 395.985 150.191 395.94 150.065 395.92L148.304 431.898L160.925 429.172C160.925 429.172 156.494 399.256 156.466 399.051C156.438 398.846 156.258 398.733 156.109 398.72Z" fill="#5E8E3E"/>
<path d="M144.017 405.685L142.461 410.308C142.461 410.308 141.097 409.581 139.426 409.581C136.975 409.581 136.852 411.117 136.852 411.504C136.852 413.615 142.364 414.425 142.364 419.37C142.364 423.262 139.892 425.767 136.56 425.767C132.561 425.767 130.516 423.282 130.516 423.282L131.586 419.749C131.586 419.749 133.689 421.551 135.462 421.551C136.621 421.551 137.093 420.64 137.093 419.974C137.093 417.22 132.571 417.097 132.571 412.571C132.571 408.762 135.309 405.076 140.836 405.076C142.965 405.076 144.017 405.685 144.017 405.685Z" fill="white"/>
<defs>
<filter id="filter0_d" x="6" y="25.48" width="132" height="132" filterUnits="userSpaceOnUse" color-interpolation-filters="sRGB">
<feFlood flood-opacity="0" result="BackgroundImageFix"/>
<feColorMatrix in="SourceAlpha" type="matrix" values="0 0 0 0 0 0 0 0 0 0 0 0 0 0 0 0 0 0 127 0"/>
<feOffset dy="4"/>
<feGaussianBlur stdDeviation="12"/>
<feColorMatrix type="matrix" values="0 0 0 0 0.584314 0 0 0 0 0.65098 0 0 0 0 0.898039 0 0 0 0.16 0"/>
<feBlend mode="normal" in2="BackgroundImageFix" result="effect1_dropShadow"/>
<feBlend mode="normal" in="SourceGraphic" in2="effect1_dropShadow" result="shape"/>
</filter>
<filter id="filter1_d" x="116" y="89.48" width="193" height="193" filterUnits="userSpaceOnUse" color-interpolation-filters="sRGB">
<feFlood flood-opacity="0" result="BackgroundImageFix"/>
<feColorMatrix in="SourceAlpha" type="matrix" values="0 0 0 0 0 0 0 0 0 0 0 0 0 0 0 0 0 0 127 0"/>
<feOffset dx="4"/>
<feGaussianBlur stdDeviation="12"/>
<feColorMatrix type="matrix" values="0 0 0 0 0.584314 0 0 0 0 0.65098 0 0 0 0 0.898039 0 0 0 0.16 0"/>
<feBlend mode="normal" in2="BackgroundImageFix" result="effect1_dropShadow"/>
<feBlend mode="normal" in="SourceGraphic" in2="effect1_dropShadow" result="shape"/>
</filter>
<filter id="filter2_d" x="313" y="325.48" width="108" height="108" filterUnits="userSpaceOnUse" color-interpolation-filters="sRGB">
<feFlood flood-opacity="0" result="BackgroundImageFix"/>
<feColorMatrix in="SourceAlpha" type="matrix" values="0 0 0 0 0 0 0 0 0 0 0 0 0 0 0 0 0 0 127 0"/>
<feOffset dy="4"/>
<feGaussianBlur stdDeviation="12"/>
<feColorMatrix type="matrix" values="0 0 0 0 0.584314 0 0 0 0 0.65098 0 0 0 0 0.898039 0 0 0 0.16 0"/>
<feBlend mode="normal" in2="BackgroundImageFix" result="effect1_dropShadow"/>
<feBlend mode="normal" in="SourceGraphic" in2="effect1_dropShadow" result="shape"/>
</filter>
<filter id="filter3_d" x="53" y="220.48" width="130" height="130" filterUnits="userSpaceOnUse" color-interpolation-filters="sRGB">
<feFlood flood-opacity="0" result="BackgroundImageFix"/>
<feColorMatrix in="SourceAlpha" type="matrix" values="0 0 0 0 0 0 0 0 0 0 0 0 0 0 0 0 0 0 127 0"/>
<feOffset dy="4"/>
<feGaussianBlur stdDeviation="12"/>
<feColorMatrix type="matrix" values="0 0 0 0 0.584314 0 0 0 0 0.65098 0 0 0 0 0.898039 0 0 0 0.16 0"/>
<feBlend mode="normal" in2="BackgroundImageFix" result="effect1_dropShadow"/>
<feBlend mode="normal" in="SourceGraphic" in2="effect1_dropShadow" result="shape"/>
</filter>
<filter id="filter4_d" x="289" y="181" width="120" height="120" filterUnits="userSpaceOnUse" color-interpolation-filters="sRGB">
<feFlood flood-opacity="0" result="BackgroundImageFix"/>
<feColorMatrix in="SourceAlpha" type="matrix" values="0 0 0 0 0 0 0 0 0 0 0 0 0 0 0 0 0 0 127 0"/>
<feOffset dy="4"/>
<feGaussianBlur stdDeviation="12"/>
<feColorMatrix type="matrix" values="0 0 0 0 0.584314 0 0 0 0 0.65098 0 0 0 0 0.898039 0 0 0 0.16 0"/>
<feBlend mode="normal" in2="BackgroundImageFix" result="effect1_dropShadow"/>
<feBlend mode="normal" in="SourceGraphic" in2="effect1_dropShadow" result="shape"/>
</filter>
<linearGradient id="paint0_linear" x1="51.9244" y1="66.9344" x2="76.5924" y2="92.0723" gradientUnits="userSpaceOnUse">
<stop stop-color="#387EB8"/>
<stop offset="1" stop-color="#366994"/>
</linearGradient>
<linearGradient id="paint1_linear" x1="67.2686" y1="82.3" x2="94.482" y2="108.083" gradientUnits="userSpaceOnUse">
<stop stop-color="#FFE052"/>
<stop offset="1" stop-color="#FFC331"/>
</linearGradient>
<linearGradient id="paint2_linear" x1="117.772" y1="266.797" x2="107.611" y2="276.567" gradientUnits="userSpaceOnUse">
<stop offset="0.18" stop-color="#0052CC"/>
<stop offset="1" stop-color="#2684FF"/>
</linearGradient>
<linearGradient id="paint3_linear" x1="1999.29" y1="2391.42" x2="3047.39" y2="3090" gradientUnits="userSpaceOnUse">
<stop offset="0.18" stop-color="#0052CC"/>
<stop offset="1" stop-color="#2684FF"/>
</linearGradient>
<clipPath id="clip0">
<rect width="42.354" height="45" fill="white" transform="translate(328 215)"/>
</clipPath>
</defs>
</svg>
