<svg width="36" height="34" viewBox="0 0 36 34" fill="none" xmlns="http://www.w3.org/2000/svg">
<path d="M26.3809 12.6667H27.9047C29.5212 12.6667 31.0716 13.3088 32.2147 14.4519C33.3577 15.595 33.9999 17.1453 33.9999 18.7619C33.9999 20.3785 33.3577 21.9288 32.2147 23.0719C31.0716 24.215 29.5212 24.8571 27.9047 24.8571H26.3809" stroke="#3BBE73" stroke-width="3" stroke-linecap="round" stroke-linejoin="round"/>
<path d="M2 12.6667H26.381V26.3809C26.381 27.9975 25.7388 29.5478 24.5957 30.6909C23.4526 31.834 21.9023 32.4762 20.2857 32.4762H8.09524C6.47868 32.4762 4.92833 31.834 3.78525 30.6909C2.64218 29.5478 2 27.9975 2 26.3809V12.6667Z" stroke="#3BBE73" stroke-width="3" stroke-linecap="round" stroke-linejoin="round"/>
<path d="M8.09521 2V6.57143" stroke="#3BBE73" stroke-width="3" stroke-linecap="round" stroke-linejoin="round"/>
<path d="M14.1904 2V6.57143" stroke="#3BBE73" stroke-width="3" stroke-linecap="round" stroke-linejoin="round"/>
<path d="M20.2856 2V6.57143" stroke="#3BBE73" stroke-width="3" stroke-linecap="round" stroke-linejoin="round"/>
</svg>
