<svg width="12" height="9" viewBox="0 0 12 9" fill="none" xmlns="http://www.w3.org/2000/svg">
<path d="M12 1.06419C11.5538 1.24467 11.0783 1.36429 10.5825 1.42238C11.0925 1.14164 11.4818 0.700471 11.6648 0.168721C11.1892 0.430101 10.6642 0.614727 10.1047 0.717758C9.65325 0.274518 9.00975 0 8.30775 0C6.94575 0 5.84925 1.01924 5.84925 2.26875C5.84925 2.44854 5.86575 2.62141 5.90625 2.78598C3.861 2.69401 2.05125 1.79025 0.8355 0.413506C0.62325 0.753023 0.49875 1.14164 0.49875 1.55998C0.49875 2.3455 0.9375 3.04183 1.5915 3.44496C1.19625 3.43805 0.8085 3.33225 0.48 3.1656C0.48 3.17252 0.48 3.18151 0.48 3.1905C0.48 4.29272 1.33275 5.20824 2.451 5.41914C2.25075 5.46962 2.0325 5.49382 1.806 5.49382C1.6485 5.49382 1.4895 5.48552 1.34025 5.4551C1.659 6.35333 2.5635 7.0137 3.639 7.03513C2.802 7.63879 1.73925 8.00251 0.58875 8.00251C0.387 8.00251 0.1935 7.99422 0 7.9714C1.08975 8.61932 2.38125 8.98926 3.774 8.98926C8.301 8.98926 10.776 5.53185 10.776 2.53497C10.776 2.43471 10.7723 2.3379 10.767 2.24178C11.2552 1.92232 11.6655 1.52333 12 1.06419Z" fill="#536083"/>
</svg>
